<mxfile host="Electron" modified="2023-09-25T08:36:14.846Z" agent="Mozilla/5.0 (Windows NT 10.0; Win64; x64) AppleWebKit/537.36 (KHTML, like Gecko) draw.io/21.7.5 Chrome/114.0.5735.289 Electron/25.8.1 Safari/537.36" etag="ZMowX4MJqa6q4RMXJDO4" version="21.7.5" type="device">
  <diagram name="‫עמוד-1‬" id="PIUXfP5wfecW3DTeMQHT">
    <mxGraphModel dx="1500" dy="887" grid="1" gridSize="10" guides="1" tooltips="1" connect="1" arrows="1" fold="1" page="1" pageScale="1" pageWidth="1169" pageHeight="827" background="none" math="0" shadow="0">
      <root>
        <mxCell id="0" />
        <mxCell id="1" parent="0" />
        <mxCell id="CMkSENSF9rFQuJip62t_-1" value="" style="rounded=0;whiteSpace=wrap;html=1;fillColor=none;strokeWidth=3;" parent="1" vertex="1">
          <mxGeometry x="281" y="116.08" width="1109" height="580" as="geometry" />
        </mxCell>
        <mxCell id="hKCDKyTYqFuo51qoeJcD-1" value="&lt;span style=&quot;font-size: 18px;&quot;&gt;&lt;b style=&quot;font-size: 18px;&quot;&gt;MATRIX MEMORY&lt;/b&gt;&lt;/span&gt;" style="text;html=1;strokeColor=none;fillColor=none;align=center;verticalAlign=middle;whiteSpace=wrap;rounded=0;fontFamily=Garamond;fontSize=18;" parent="1" vertex="1">
          <mxGeometry x="284" y="116.08" width="168" height="30" as="geometry" />
        </mxCell>
        <mxCell id="rRr5-v546E61nDgylXeF-11" value="" style="group" parent="1" vertex="1" connectable="0">
          <mxGeometry x="331" y="396.08" width="40" height="50" as="geometry" />
        </mxCell>
        <mxCell id="CMkSENSF9rFQuJip62t_-91" value="&lt;font face=&quot;Garamond&quot;&gt;&lt;b&gt;Reg&lt;br&gt;(0,0)&lt;br&gt;&lt;br&gt;&lt;/b&gt;&lt;/font&gt;" style="rounded=0;whiteSpace=wrap;html=1;fillColor=#d5e8d4;strokeColor=#82b366;" parent="rRr5-v546E61nDgylXeF-11" vertex="1">
          <mxGeometry width="40" height="50" as="geometry" />
        </mxCell>
        <mxCell id="CMkSENSF9rFQuJip62t_-90" value="" style="triangle;whiteSpace=wrap;html=1;fillColor=#d5e8d4;strokeColor=#82b366;" parent="rRr5-v546E61nDgylXeF-11" vertex="1">
          <mxGeometry y="35.5" width="10" height="8.5" as="geometry" />
        </mxCell>
        <mxCell id="rRr5-v546E61nDgylXeF-12" value="" style="group" parent="1" vertex="1" connectable="0">
          <mxGeometry x="401" y="366.08" width="40" height="50" as="geometry" />
        </mxCell>
        <mxCell id="rRr5-v546E61nDgylXeF-13" value="&lt;font face=&quot;Garamond&quot;&gt;&lt;b&gt;Reg&lt;br&gt;(1,0)&lt;br&gt;&lt;br&gt;&lt;/b&gt;&lt;/font&gt;" style="rounded=0;whiteSpace=wrap;html=1;fillColor=#d5e8d4;strokeColor=#82b366;" parent="rRr5-v546E61nDgylXeF-12" vertex="1">
          <mxGeometry width="40" height="50" as="geometry" />
        </mxCell>
        <mxCell id="rRr5-v546E61nDgylXeF-14" value="" style="triangle;whiteSpace=wrap;html=1;fillColor=#d5e8d4;strokeColor=#82b366;" parent="rRr5-v546E61nDgylXeF-12" vertex="1">
          <mxGeometry y="35.5" width="10" height="8.5" as="geometry" />
        </mxCell>
        <mxCell id="rRr5-v546E61nDgylXeF-266" value="" style="endArrow=classic;html=1;rounded=0;entryX=0.25;entryY=0;entryDx=0;entryDy=0;jumpStyle=arc;dashed=1;dashPattern=1 2;" parent="rRr5-v546E61nDgylXeF-12" edge="1">
          <mxGeometry width="50" height="50" relative="1" as="geometry">
            <mxPoint x="10" as="sourcePoint" />
            <mxPoint x="10" y="60" as="targetPoint" />
          </mxGeometry>
        </mxCell>
        <mxCell id="rRr5-v546E61nDgylXeF-15" value="" style="group" parent="1" vertex="1" connectable="0">
          <mxGeometry x="401" y="426.08" width="40" height="50" as="geometry" />
        </mxCell>
        <mxCell id="rRr5-v546E61nDgylXeF-16" value="&lt;font face=&quot;Garamond&quot;&gt;&lt;b&gt;Reg&lt;br&gt;(0,1)&lt;br&gt;&lt;br&gt;&lt;/b&gt;&lt;/font&gt;" style="rounded=0;whiteSpace=wrap;html=1;fillColor=#d5e8d4;strokeColor=#82b366;" parent="rRr5-v546E61nDgylXeF-15" vertex="1">
          <mxGeometry width="40" height="50" as="geometry" />
        </mxCell>
        <mxCell id="rRr5-v546E61nDgylXeF-17" value="" style="triangle;whiteSpace=wrap;html=1;fillColor=#d5e8d4;strokeColor=#82b366;" parent="rRr5-v546E61nDgylXeF-15" vertex="1">
          <mxGeometry y="35.5" width="10" height="8.5" as="geometry" />
        </mxCell>
        <mxCell id="rRr5-v546E61nDgylXeF-19" value="" style="group" parent="1" vertex="1" connectable="0">
          <mxGeometry x="471" y="396.08" width="40" height="50" as="geometry" />
        </mxCell>
        <mxCell id="rRr5-v546E61nDgylXeF-20" value="&lt;font face=&quot;Garamond&quot;&gt;&lt;b&gt;Reg&lt;br&gt;(1,1)&lt;br&gt;&lt;br&gt;&lt;/b&gt;&lt;/font&gt;" style="rounded=0;whiteSpace=wrap;html=1;fillColor=#d5e8d4;strokeColor=#82b366;" parent="rRr5-v546E61nDgylXeF-19" vertex="1">
          <mxGeometry width="40" height="50" as="geometry" />
        </mxCell>
        <mxCell id="rRr5-v546E61nDgylXeF-21" value="" style="triangle;whiteSpace=wrap;html=1;fillColor=#d5e8d4;strokeColor=#82b366;" parent="rRr5-v546E61nDgylXeF-19" vertex="1">
          <mxGeometry y="35.5" width="10" height="8.5" as="geometry" />
        </mxCell>
        <mxCell id="rRr5-v546E61nDgylXeF-265" value="" style="endArrow=classic;html=1;rounded=0;entryX=0.25;entryY=0;entryDx=0;entryDy=0;jumpStyle=arc;dashed=1;dashPattern=1 2;" parent="rRr5-v546E61nDgylXeF-19" edge="1">
          <mxGeometry width="50" height="50" relative="1" as="geometry">
            <mxPoint x="10" as="sourcePoint" />
            <mxPoint x="10" y="60" as="targetPoint" />
          </mxGeometry>
        </mxCell>
        <mxCell id="rRr5-v546E61nDgylXeF-22" value="" style="group" parent="1" vertex="1" connectable="0">
          <mxGeometry x="471" y="456.08" width="40" height="50" as="geometry" />
        </mxCell>
        <mxCell id="rRr5-v546E61nDgylXeF-23" value="&lt;font face=&quot;Garamond&quot;&gt;&lt;b&gt;Reg&lt;br&gt;(0,2)&lt;br&gt;&lt;br&gt;&lt;/b&gt;&lt;/font&gt;" style="rounded=0;whiteSpace=wrap;html=1;fillColor=#d5e8d4;strokeColor=#82b366;" parent="rRr5-v546E61nDgylXeF-22" vertex="1">
          <mxGeometry width="40" height="50" as="geometry" />
        </mxCell>
        <mxCell id="rRr5-v546E61nDgylXeF-24" value="" style="triangle;whiteSpace=wrap;html=1;fillColor=#d5e8d4;strokeColor=#82b366;" parent="rRr5-v546E61nDgylXeF-22" vertex="1">
          <mxGeometry y="35.5" width="10" height="8.5" as="geometry" />
        </mxCell>
        <mxCell id="rRr5-v546E61nDgylXeF-26" value="" style="group" parent="1" vertex="1" connectable="0">
          <mxGeometry x="471" y="336.08" width="40" height="50" as="geometry" />
        </mxCell>
        <mxCell id="rRr5-v546E61nDgylXeF-27" value="&lt;font face=&quot;Garamond&quot;&gt;&lt;b&gt;Reg&lt;br&gt;(2,0)&lt;br&gt;&lt;br&gt;&lt;/b&gt;&lt;/font&gt;" style="rounded=0;whiteSpace=wrap;html=1;fillColor=#d5e8d4;strokeColor=#82b366;" parent="rRr5-v546E61nDgylXeF-26" vertex="1">
          <mxGeometry width="40" height="50" as="geometry" />
        </mxCell>
        <mxCell id="rRr5-v546E61nDgylXeF-28" value="" style="triangle;whiteSpace=wrap;html=1;fillColor=#d5e8d4;strokeColor=#82b366;" parent="rRr5-v546E61nDgylXeF-26" vertex="1">
          <mxGeometry y="35.5" width="10" height="8.5" as="geometry" />
        </mxCell>
        <mxCell id="rRr5-v546E61nDgylXeF-264" value="" style="endArrow=classic;html=1;rounded=0;entryX=0.25;entryY=0;entryDx=0;entryDy=0;jumpStyle=arc;dashed=1;dashPattern=1 2;" parent="rRr5-v546E61nDgylXeF-26" edge="1">
          <mxGeometry width="50" height="50" relative="1" as="geometry">
            <mxPoint x="10" as="sourcePoint" />
            <mxPoint x="10" y="60" as="targetPoint" />
          </mxGeometry>
        </mxCell>
        <mxCell id="rRr5-v546E61nDgylXeF-29" value="" style="group" parent="1" vertex="1" connectable="0">
          <mxGeometry x="541" y="366.08" width="40" height="50" as="geometry" />
        </mxCell>
        <mxCell id="rRr5-v546E61nDgylXeF-30" value="&lt;font face=&quot;Garamond&quot;&gt;&lt;b&gt;Reg&lt;br&gt;(2,1)&lt;br&gt;&lt;br&gt;&lt;/b&gt;&lt;/font&gt;" style="rounded=0;whiteSpace=wrap;html=1;fillColor=#d5e8d4;strokeColor=#82b366;" parent="rRr5-v546E61nDgylXeF-29" vertex="1">
          <mxGeometry width="40" height="50" as="geometry" />
        </mxCell>
        <mxCell id="rRr5-v546E61nDgylXeF-31" value="" style="triangle;whiteSpace=wrap;html=1;fillColor=#d5e8d4;strokeColor=#82b366;" parent="rRr5-v546E61nDgylXeF-29" vertex="1">
          <mxGeometry y="35.5" width="10" height="8.5" as="geometry" />
        </mxCell>
        <mxCell id="rRr5-v546E61nDgylXeF-262" value="" style="endArrow=classic;html=1;rounded=0;entryX=0.25;entryY=0;entryDx=0;entryDy=0;jumpStyle=arc;dashed=1;dashPattern=1 2;" parent="rRr5-v546E61nDgylXeF-29" edge="1">
          <mxGeometry width="50" height="50" relative="1" as="geometry">
            <mxPoint x="10" as="sourcePoint" />
            <mxPoint x="10" y="60" as="targetPoint" />
          </mxGeometry>
        </mxCell>
        <mxCell id="rRr5-v546E61nDgylXeF-32" value="" style="group" parent="1" vertex="1" connectable="0">
          <mxGeometry x="541" y="426.08" width="40" height="50" as="geometry" />
        </mxCell>
        <mxCell id="rRr5-v546E61nDgylXeF-33" value="&lt;font face=&quot;Garamond&quot;&gt;&lt;b&gt;Reg&lt;br&gt;(1,2)&lt;br&gt;&lt;br&gt;&lt;/b&gt;&lt;/font&gt;" style="rounded=0;whiteSpace=wrap;html=1;fillColor=#d5e8d4;strokeColor=#82b366;" parent="rRr5-v546E61nDgylXeF-32" vertex="1">
          <mxGeometry width="40" height="50" as="geometry" />
        </mxCell>
        <mxCell id="rRr5-v546E61nDgylXeF-34" value="" style="triangle;whiteSpace=wrap;html=1;fillColor=#d5e8d4;strokeColor=#82b366;" parent="rRr5-v546E61nDgylXeF-32" vertex="1">
          <mxGeometry y="35.5" width="10" height="8.5" as="geometry" />
        </mxCell>
        <mxCell id="rRr5-v546E61nDgylXeF-263" value="" style="endArrow=classic;html=1;rounded=0;entryX=0.25;entryY=0;entryDx=0;entryDy=0;jumpStyle=arc;dashed=1;dashPattern=1 2;" parent="rRr5-v546E61nDgylXeF-32" edge="1">
          <mxGeometry width="50" height="50" relative="1" as="geometry">
            <mxPoint x="10" as="sourcePoint" />
            <mxPoint x="10" y="60" as="targetPoint" />
          </mxGeometry>
        </mxCell>
        <mxCell id="rRr5-v546E61nDgylXeF-35" value="" style="group" parent="1" vertex="1" connectable="0">
          <mxGeometry x="541" y="306.08" width="40" height="50" as="geometry" />
        </mxCell>
        <mxCell id="rRr5-v546E61nDgylXeF-36" value="&lt;font face=&quot;Garamond&quot;&gt;&lt;b&gt;Reg&lt;br&gt;(3,0)&lt;br&gt;&lt;br&gt;&lt;/b&gt;&lt;/font&gt;" style="rounded=0;whiteSpace=wrap;html=1;fillColor=#d5e8d4;strokeColor=#82b366;" parent="rRr5-v546E61nDgylXeF-35" vertex="1">
          <mxGeometry width="40" height="50" as="geometry" />
        </mxCell>
        <mxCell id="rRr5-v546E61nDgylXeF-37" value="" style="triangle;whiteSpace=wrap;html=1;fillColor=#d5e8d4;strokeColor=#82b366;" parent="rRr5-v546E61nDgylXeF-35" vertex="1">
          <mxGeometry y="35.5" width="10" height="8.5" as="geometry" />
        </mxCell>
        <mxCell id="rRr5-v546E61nDgylXeF-261" value="" style="endArrow=classic;html=1;rounded=0;entryX=0.25;entryY=0;entryDx=0;entryDy=0;jumpStyle=arc;dashed=1;dashPattern=1 2;" parent="rRr5-v546E61nDgylXeF-35" edge="1">
          <mxGeometry width="50" height="50" relative="1" as="geometry">
            <mxPoint x="10" as="sourcePoint" />
            <mxPoint x="10" y="60" as="targetPoint" />
          </mxGeometry>
        </mxCell>
        <mxCell id="rRr5-v546E61nDgylXeF-38" value="" style="group" parent="1" vertex="1" connectable="0">
          <mxGeometry x="541" y="486.08" width="40" height="50" as="geometry" />
        </mxCell>
        <mxCell id="rRr5-v546E61nDgylXeF-39" value="&lt;font face=&quot;Garamond&quot;&gt;&lt;b&gt;Reg&lt;br&gt;(0,3)&lt;br&gt;&lt;br&gt;&lt;/b&gt;&lt;/font&gt;" style="rounded=0;whiteSpace=wrap;html=1;fillColor=#d5e8d4;strokeColor=#82b366;" parent="rRr5-v546E61nDgylXeF-38" vertex="1">
          <mxGeometry width="40" height="50" as="geometry" />
        </mxCell>
        <mxCell id="rRr5-v546E61nDgylXeF-40" value="" style="triangle;whiteSpace=wrap;html=1;fillColor=#d5e8d4;strokeColor=#82b366;" parent="rRr5-v546E61nDgylXeF-38" vertex="1">
          <mxGeometry y="35.5" width="10" height="8.5" as="geometry" />
        </mxCell>
        <mxCell id="rRr5-v546E61nDgylXeF-41" value="" style="group" parent="1" vertex="1" connectable="0">
          <mxGeometry x="611" y="276.08" width="40" height="50" as="geometry" />
        </mxCell>
        <mxCell id="rRr5-v546E61nDgylXeF-42" value="&lt;font face=&quot;Garamond&quot;&gt;&lt;b&gt;Reg&lt;br&gt;(4,0)&lt;br&gt;&lt;br&gt;&lt;/b&gt;&lt;/font&gt;" style="rounded=0;whiteSpace=wrap;html=1;fillColor=#d5e8d4;strokeColor=#82b366;" parent="rRr5-v546E61nDgylXeF-41" vertex="1">
          <mxGeometry width="40" height="50" as="geometry" />
        </mxCell>
        <mxCell id="rRr5-v546E61nDgylXeF-43" value="" style="triangle;whiteSpace=wrap;html=1;fillColor=#d5e8d4;strokeColor=#82b366;" parent="rRr5-v546E61nDgylXeF-41" vertex="1">
          <mxGeometry y="35.5" width="10" height="8.5" as="geometry" />
        </mxCell>
        <mxCell id="rRr5-v546E61nDgylXeF-256" value="" style="endArrow=classic;html=1;rounded=0;entryX=0.25;entryY=0;entryDx=0;entryDy=0;jumpStyle=arc;dashed=1;dashPattern=1 2;" parent="rRr5-v546E61nDgylXeF-41" edge="1">
          <mxGeometry width="50" height="50" relative="1" as="geometry">
            <mxPoint x="10" as="sourcePoint" />
            <mxPoint x="10" y="60" as="targetPoint" />
          </mxGeometry>
        </mxCell>
        <mxCell id="rRr5-v546E61nDgylXeF-44" value="" style="group" parent="1" vertex="1" connectable="0">
          <mxGeometry x="611" y="396.08" width="40" height="50" as="geometry" />
        </mxCell>
        <mxCell id="rRr5-v546E61nDgylXeF-45" value="&lt;font face=&quot;Garamond&quot;&gt;&lt;b&gt;Reg&lt;br&gt;(2,2)&lt;br&gt;&lt;br&gt;&lt;/b&gt;&lt;/font&gt;" style="rounded=0;whiteSpace=wrap;html=1;fillColor=#d5e8d4;strokeColor=#82b366;" parent="rRr5-v546E61nDgylXeF-44" vertex="1">
          <mxGeometry width="40" height="50" as="geometry" />
        </mxCell>
        <mxCell id="rRr5-v546E61nDgylXeF-46" value="" style="triangle;whiteSpace=wrap;html=1;fillColor=#d5e8d4;strokeColor=#82b366;" parent="rRr5-v546E61nDgylXeF-44" vertex="1">
          <mxGeometry y="35.5" width="10" height="8.5" as="geometry" />
        </mxCell>
        <mxCell id="rRr5-v546E61nDgylXeF-258" value="" style="endArrow=classic;html=1;rounded=0;entryX=0.25;entryY=0;entryDx=0;entryDy=0;jumpStyle=arc;dashed=1;dashPattern=1 2;" parent="rRr5-v546E61nDgylXeF-44" edge="1">
          <mxGeometry width="50" height="50" relative="1" as="geometry">
            <mxPoint x="10" as="sourcePoint" />
            <mxPoint x="10" y="60" as="targetPoint" />
          </mxGeometry>
        </mxCell>
        <mxCell id="rRr5-v546E61nDgylXeF-47" value="" style="group" parent="1" vertex="1" connectable="0">
          <mxGeometry x="611" y="336.08" width="40" height="50" as="geometry" />
        </mxCell>
        <mxCell id="rRr5-v546E61nDgylXeF-48" value="&lt;font face=&quot;Garamond&quot;&gt;&lt;b&gt;Reg&lt;br&gt;(3,1)&lt;br&gt;&lt;br&gt;&lt;/b&gt;&lt;/font&gt;" style="rounded=0;whiteSpace=wrap;html=1;fillColor=#d5e8d4;strokeColor=#82b366;" parent="rRr5-v546E61nDgylXeF-47" vertex="1">
          <mxGeometry width="40" height="50" as="geometry" />
        </mxCell>
        <mxCell id="rRr5-v546E61nDgylXeF-49" value="" style="triangle;whiteSpace=wrap;html=1;fillColor=#d5e8d4;strokeColor=#82b366;" parent="rRr5-v546E61nDgylXeF-47" vertex="1">
          <mxGeometry y="35.5" width="10" height="8.5" as="geometry" />
        </mxCell>
        <mxCell id="rRr5-v546E61nDgylXeF-257" value="" style="endArrow=classic;html=1;rounded=0;entryX=0.25;entryY=0;entryDx=0;entryDy=0;jumpStyle=arc;dashed=1;dashPattern=1 2;" parent="rRr5-v546E61nDgylXeF-47" edge="1">
          <mxGeometry width="50" height="50" relative="1" as="geometry">
            <mxPoint x="10" as="sourcePoint" />
            <mxPoint x="10" y="60" as="targetPoint" />
          </mxGeometry>
        </mxCell>
        <mxCell id="rRr5-v546E61nDgylXeF-50" value="" style="group" parent="1" vertex="1" connectable="0">
          <mxGeometry x="611" y="456.08" width="40" height="50" as="geometry" />
        </mxCell>
        <mxCell id="rRr5-v546E61nDgylXeF-51" value="&lt;font face=&quot;Garamond&quot;&gt;&lt;b&gt;Reg&lt;br&gt;(1,3)&lt;br&gt;&lt;br&gt;&lt;/b&gt;&lt;/font&gt;" style="rounded=0;whiteSpace=wrap;html=1;fillColor=#d5e8d4;strokeColor=#82b366;" parent="rRr5-v546E61nDgylXeF-50" vertex="1">
          <mxGeometry width="40" height="50" as="geometry" />
        </mxCell>
        <mxCell id="rRr5-v546E61nDgylXeF-52" value="" style="triangle;whiteSpace=wrap;html=1;fillColor=#d5e8d4;strokeColor=#82b366;" parent="rRr5-v546E61nDgylXeF-50" vertex="1">
          <mxGeometry y="35.5" width="10" height="8.5" as="geometry" />
        </mxCell>
        <mxCell id="rRr5-v546E61nDgylXeF-259" value="" style="endArrow=classic;html=1;rounded=0;entryX=0.25;entryY=0;entryDx=0;entryDy=0;jumpStyle=arc;dashed=1;dashPattern=1 2;" parent="rRr5-v546E61nDgylXeF-50" edge="1">
          <mxGeometry width="50" height="50" relative="1" as="geometry">
            <mxPoint x="9.310000000000002" as="sourcePoint" />
            <mxPoint x="9.310000000000002" y="60" as="targetPoint" />
          </mxGeometry>
        </mxCell>
        <mxCell id="rRr5-v546E61nDgylXeF-69" value="" style="group" parent="1" vertex="1" connectable="0">
          <mxGeometry x="611" y="516.08" width="40" height="50" as="geometry" />
        </mxCell>
        <mxCell id="rRr5-v546E61nDgylXeF-70" value="&lt;font face=&quot;Garamond&quot;&gt;&lt;b&gt;Reg&lt;br&gt;(0,4)&lt;br&gt;&lt;br&gt;&lt;/b&gt;&lt;/font&gt;" style="rounded=0;whiteSpace=wrap;html=1;fillColor=#d5e8d4;strokeColor=#82b366;" parent="rRr5-v546E61nDgylXeF-69" vertex="1">
          <mxGeometry width="40" height="50" as="geometry" />
        </mxCell>
        <mxCell id="rRr5-v546E61nDgylXeF-71" value="" style="triangle;whiteSpace=wrap;html=1;fillColor=#d5e8d4;strokeColor=#82b366;" parent="rRr5-v546E61nDgylXeF-69" vertex="1">
          <mxGeometry y="35.5" width="10" height="8.5" as="geometry" />
        </mxCell>
        <mxCell id="rRr5-v546E61nDgylXeF-93" value="" style="group" parent="1" vertex="1" connectable="0">
          <mxGeometry x="731" y="276.08" width="40" height="50" as="geometry" />
        </mxCell>
        <mxCell id="rRr5-v546E61nDgylXeF-94" value="&lt;font face=&quot;Garamond&quot;&gt;&lt;b&gt;Reg&lt;br&gt;(31,27)&lt;br&gt;&lt;br&gt;&lt;/b&gt;&lt;/font&gt;" style="rounded=0;whiteSpace=wrap;html=1;fillColor=#d5e8d4;strokeColor=#82b366;" parent="rRr5-v546E61nDgylXeF-93" vertex="1">
          <mxGeometry width="40" height="50" as="geometry" />
        </mxCell>
        <mxCell id="rRr5-v546E61nDgylXeF-95" value="" style="triangle;whiteSpace=wrap;html=1;fillColor=#d5e8d4;strokeColor=#82b366;" parent="rRr5-v546E61nDgylXeF-93" vertex="1">
          <mxGeometry y="35.5" width="10" height="8.5" as="geometry" />
        </mxCell>
        <mxCell id="rRr5-v546E61nDgylXeF-252" value="" style="endArrow=classic;html=1;rounded=0;entryX=0.25;entryY=0;entryDx=0;entryDy=0;jumpStyle=arc;dashed=1;dashPattern=1 2;" parent="rRr5-v546E61nDgylXeF-93" edge="1">
          <mxGeometry width="50" height="50" relative="1" as="geometry">
            <mxPoint x="10" as="sourcePoint" />
            <mxPoint x="10" y="60" as="targetPoint" />
          </mxGeometry>
        </mxCell>
        <mxCell id="rRr5-v546E61nDgylXeF-96" value="" style="group" parent="1" vertex="1" connectable="0">
          <mxGeometry x="731" y="396.08" width="40" height="50" as="geometry" />
        </mxCell>
        <mxCell id="rRr5-v546E61nDgylXeF-97" value="&lt;font face=&quot;Garamond&quot;&gt;&lt;b&gt;Reg&lt;br&gt;(29,29)&lt;br&gt;&lt;br&gt;&lt;/b&gt;&lt;/font&gt;" style="rounded=0;whiteSpace=wrap;html=1;fillColor=#d5e8d4;strokeColor=#82b366;" parent="rRr5-v546E61nDgylXeF-96" vertex="1">
          <mxGeometry width="40" height="50" as="geometry" />
        </mxCell>
        <mxCell id="rRr5-v546E61nDgylXeF-98" value="" style="triangle;whiteSpace=wrap;html=1;fillColor=#d5e8d4;strokeColor=#82b366;" parent="rRr5-v546E61nDgylXeF-96" vertex="1">
          <mxGeometry y="35.5" width="10" height="8.5" as="geometry" />
        </mxCell>
        <mxCell id="rRr5-v546E61nDgylXeF-254" value="" style="endArrow=classic;html=1;rounded=0;entryX=0.25;entryY=0;entryDx=0;entryDy=0;jumpStyle=arc;dashed=1;dashPattern=1 2;" parent="rRr5-v546E61nDgylXeF-96" edge="1">
          <mxGeometry width="50" height="50" relative="1" as="geometry">
            <mxPoint x="10" as="sourcePoint" />
            <mxPoint x="10" y="60" as="targetPoint" />
          </mxGeometry>
        </mxCell>
        <mxCell id="rRr5-v546E61nDgylXeF-99" value="" style="group" parent="1" vertex="1" connectable="0">
          <mxGeometry x="731" y="336.08" width="40" height="50" as="geometry" />
        </mxCell>
        <mxCell id="rRr5-v546E61nDgylXeF-100" value="&lt;font face=&quot;Garamond&quot;&gt;&lt;b&gt;Reg&lt;br&gt;(30,28)&lt;br&gt;&lt;br&gt;&lt;/b&gt;&lt;/font&gt;" style="rounded=0;whiteSpace=wrap;html=1;fillColor=#d5e8d4;strokeColor=#82b366;" parent="rRr5-v546E61nDgylXeF-99" vertex="1">
          <mxGeometry width="40" height="50" as="geometry" />
        </mxCell>
        <mxCell id="rRr5-v546E61nDgylXeF-101" value="" style="triangle;whiteSpace=wrap;html=1;fillColor=#d5e8d4;strokeColor=#82b366;" parent="rRr5-v546E61nDgylXeF-99" vertex="1">
          <mxGeometry y="35.5" width="10" height="8.5" as="geometry" />
        </mxCell>
        <mxCell id="rRr5-v546E61nDgylXeF-253" value="" style="endArrow=classic;html=1;rounded=0;entryX=0.25;entryY=0;entryDx=0;entryDy=0;jumpStyle=arc;dashed=1;dashPattern=1 2;" parent="rRr5-v546E61nDgylXeF-99" edge="1">
          <mxGeometry width="50" height="50" relative="1" as="geometry">
            <mxPoint x="10" as="sourcePoint" />
            <mxPoint x="10" y="60" as="targetPoint" />
          </mxGeometry>
        </mxCell>
        <mxCell id="rRr5-v546E61nDgylXeF-102" value="" style="group" parent="1" vertex="1" connectable="0">
          <mxGeometry x="731" y="456.08" width="40" height="50" as="geometry" />
        </mxCell>
        <mxCell id="rRr5-v546E61nDgylXeF-103" value="&lt;font face=&quot;Garamond&quot;&gt;&lt;b&gt;Reg&lt;br&gt;(28,30)&lt;br&gt;&lt;br&gt;&lt;/b&gt;&lt;/font&gt;" style="rounded=0;whiteSpace=wrap;html=1;fillColor=#d5e8d4;strokeColor=#82b366;" parent="rRr5-v546E61nDgylXeF-102" vertex="1">
          <mxGeometry width="40" height="50" as="geometry" />
        </mxCell>
        <mxCell id="rRr5-v546E61nDgylXeF-104" value="" style="triangle;whiteSpace=wrap;html=1;fillColor=#d5e8d4;strokeColor=#82b366;" parent="rRr5-v546E61nDgylXeF-102" vertex="1">
          <mxGeometry y="35.5" width="10" height="8.5" as="geometry" />
        </mxCell>
        <mxCell id="rRr5-v546E61nDgylXeF-255" value="" style="endArrow=classic;html=1;rounded=0;entryX=0.25;entryY=0;entryDx=0;entryDy=0;jumpStyle=arc;dashed=1;dashPattern=1 2;" parent="rRr5-v546E61nDgylXeF-102" edge="1">
          <mxGeometry width="50" height="50" relative="1" as="geometry">
            <mxPoint x="10" as="sourcePoint" />
            <mxPoint x="10" y="60" as="targetPoint" />
          </mxGeometry>
        </mxCell>
        <mxCell id="rRr5-v546E61nDgylXeF-105" value="" style="group" parent="1" vertex="1" connectable="0">
          <mxGeometry x="731" y="516.08" width="40" height="50" as="geometry" />
        </mxCell>
        <mxCell id="rRr5-v546E61nDgylXeF-106" value="&lt;font face=&quot;Garamond&quot;&gt;&lt;b&gt;Reg&lt;br&gt;(27,31)&lt;br&gt;&lt;br&gt;&lt;/b&gt;&lt;/font&gt;" style="rounded=0;whiteSpace=wrap;html=1;fillColor=#d5e8d4;strokeColor=#82b366;" parent="rRr5-v546E61nDgylXeF-105" vertex="1">
          <mxGeometry width="40" height="50" as="geometry" />
        </mxCell>
        <mxCell id="rRr5-v546E61nDgylXeF-107" value="" style="triangle;whiteSpace=wrap;html=1;fillColor=#d5e8d4;strokeColor=#82b366;" parent="rRr5-v546E61nDgylXeF-105" vertex="1">
          <mxGeometry y="35.5" width="10" height="8.5" as="geometry" />
        </mxCell>
        <mxCell id="rRr5-v546E61nDgylXeF-109" value="" style="group" parent="1" vertex="1" connectable="0">
          <mxGeometry x="801" y="366.08" width="40" height="50" as="geometry" />
        </mxCell>
        <mxCell id="rRr5-v546E61nDgylXeF-110" value="&lt;font face=&quot;Garamond&quot;&gt;&lt;b&gt;Reg&lt;br&gt;(30,29)&lt;br&gt;&lt;br&gt;&lt;/b&gt;&lt;/font&gt;" style="rounded=0;whiteSpace=wrap;html=1;fillColor=#d5e8d4;strokeColor=#82b366;" parent="rRr5-v546E61nDgylXeF-109" vertex="1">
          <mxGeometry width="40" height="50" as="geometry" />
        </mxCell>
        <mxCell id="rRr5-v546E61nDgylXeF-111" value="" style="triangle;whiteSpace=wrap;html=1;fillColor=#d5e8d4;strokeColor=#82b366;" parent="rRr5-v546E61nDgylXeF-109" vertex="1">
          <mxGeometry y="35.5" width="10" height="8.5" as="geometry" />
        </mxCell>
        <mxCell id="rRr5-v546E61nDgylXeF-250" value="" style="endArrow=classic;html=1;rounded=0;entryX=0.25;entryY=0;entryDx=0;entryDy=0;jumpStyle=arc;dashed=1;dashPattern=1 2;" parent="rRr5-v546E61nDgylXeF-109" edge="1">
          <mxGeometry width="50" height="50" relative="1" as="geometry">
            <mxPoint x="10" as="sourcePoint" />
            <mxPoint x="10" y="60" as="targetPoint" />
          </mxGeometry>
        </mxCell>
        <mxCell id="rRr5-v546E61nDgylXeF-112" value="" style="group" parent="1" vertex="1" connectable="0">
          <mxGeometry x="801" y="306.08" width="40" height="50" as="geometry" />
        </mxCell>
        <mxCell id="rRr5-v546E61nDgylXeF-113" value="&lt;font face=&quot;Garamond&quot;&gt;&lt;b&gt;Reg&lt;br&gt;(31,28)&lt;br&gt;&lt;br&gt;&lt;/b&gt;&lt;/font&gt;" style="rounded=0;whiteSpace=wrap;html=1;fillColor=#d5e8d4;strokeColor=#82b366;" parent="rRr5-v546E61nDgylXeF-112" vertex="1">
          <mxGeometry width="40" height="50" as="geometry" />
        </mxCell>
        <mxCell id="rRr5-v546E61nDgylXeF-114" value="" style="triangle;whiteSpace=wrap;html=1;fillColor=#d5e8d4;strokeColor=#82b366;" parent="rRr5-v546E61nDgylXeF-112" vertex="1">
          <mxGeometry y="35.5" width="10" height="8.5" as="geometry" />
        </mxCell>
        <mxCell id="rRr5-v546E61nDgylXeF-249" value="" style="endArrow=classic;html=1;rounded=0;entryX=0.25;entryY=0;entryDx=0;entryDy=0;jumpStyle=arc;dashed=1;dashPattern=1 2;" parent="rRr5-v546E61nDgylXeF-112" edge="1">
          <mxGeometry width="50" height="50" relative="1" as="geometry">
            <mxPoint x="10" as="sourcePoint" />
            <mxPoint x="10" y="60" as="targetPoint" />
          </mxGeometry>
        </mxCell>
        <mxCell id="rRr5-v546E61nDgylXeF-115" value="" style="group" parent="1" vertex="1" connectable="0">
          <mxGeometry x="801" y="426.08" width="40" height="50" as="geometry" />
        </mxCell>
        <mxCell id="rRr5-v546E61nDgylXeF-116" value="&lt;font face=&quot;Garamond&quot;&gt;&lt;b&gt;Reg&lt;br&gt;(29,30)&lt;br&gt;&lt;br&gt;&lt;/b&gt;&lt;/font&gt;" style="rounded=0;whiteSpace=wrap;html=1;fillColor=#d5e8d4;strokeColor=#82b366;" parent="rRr5-v546E61nDgylXeF-115" vertex="1">
          <mxGeometry width="40" height="50" as="geometry" />
        </mxCell>
        <mxCell id="rRr5-v546E61nDgylXeF-117" value="" style="triangle;whiteSpace=wrap;html=1;fillColor=#d5e8d4;strokeColor=#82b366;" parent="rRr5-v546E61nDgylXeF-115" vertex="1">
          <mxGeometry y="35.5" width="10" height="8.5" as="geometry" />
        </mxCell>
        <mxCell id="rRr5-v546E61nDgylXeF-251" value="" style="endArrow=classic;html=1;rounded=0;entryX=0.25;entryY=0;entryDx=0;entryDy=0;jumpStyle=arc;dashed=1;dashPattern=1 2;" parent="rRr5-v546E61nDgylXeF-115" edge="1">
          <mxGeometry width="50" height="50" relative="1" as="geometry">
            <mxPoint x="10" as="sourcePoint" />
            <mxPoint x="10" y="60" as="targetPoint" />
          </mxGeometry>
        </mxCell>
        <mxCell id="rRr5-v546E61nDgylXeF-118" value="" style="group" parent="1" vertex="1" connectable="0">
          <mxGeometry x="801" y="486.08" width="40" height="50" as="geometry" />
        </mxCell>
        <mxCell id="rRr5-v546E61nDgylXeF-119" value="&lt;font face=&quot;Garamond&quot;&gt;&lt;b&gt;Reg&lt;br&gt;(28,31)&lt;br&gt;&lt;br&gt;&lt;/b&gt;&lt;/font&gt;" style="rounded=0;whiteSpace=wrap;html=1;fillColor=#d5e8d4;strokeColor=#82b366;" parent="rRr5-v546E61nDgylXeF-118" vertex="1">
          <mxGeometry width="40" height="50" as="geometry" />
        </mxCell>
        <mxCell id="rRr5-v546E61nDgylXeF-120" value="" style="triangle;whiteSpace=wrap;html=1;fillColor=#d5e8d4;strokeColor=#82b366;" parent="rRr5-v546E61nDgylXeF-118" vertex="1">
          <mxGeometry y="35.5" width="10" height="8.5" as="geometry" />
        </mxCell>
        <mxCell id="rRr5-v546E61nDgylXeF-121" value="" style="group" parent="1" vertex="1" connectable="0">
          <mxGeometry x="871" y="336.08" width="40" height="50" as="geometry" />
        </mxCell>
        <mxCell id="rRr5-v546E61nDgylXeF-122" value="&lt;font face=&quot;Garamond&quot;&gt;&lt;b&gt;Reg&lt;br&gt;(31,29)&lt;br&gt;&lt;br&gt;&lt;/b&gt;&lt;/font&gt;" style="rounded=0;whiteSpace=wrap;html=1;fillColor=#d5e8d4;strokeColor=#82b366;" parent="rRr5-v546E61nDgylXeF-121" vertex="1">
          <mxGeometry width="40" height="50" as="geometry" />
        </mxCell>
        <mxCell id="rRr5-v546E61nDgylXeF-123" value="" style="triangle;whiteSpace=wrap;html=1;fillColor=#d5e8d4;strokeColor=#82b366;" parent="rRr5-v546E61nDgylXeF-121" vertex="1">
          <mxGeometry y="35.5" width="10" height="8.5" as="geometry" />
        </mxCell>
        <mxCell id="rRr5-v546E61nDgylXeF-124" value="" style="group" parent="1" vertex="1" connectable="0">
          <mxGeometry x="871" y="396.08" width="40" height="50" as="geometry" />
        </mxCell>
        <mxCell id="rRr5-v546E61nDgylXeF-125" value="&lt;font face=&quot;Garamond&quot;&gt;&lt;b&gt;Reg&lt;br&gt;(30,30)&lt;br&gt;&lt;br&gt;&lt;/b&gt;&lt;/font&gt;" style="rounded=0;whiteSpace=wrap;html=1;fillColor=#d5e8d4;strokeColor=#82b366;" parent="rRr5-v546E61nDgylXeF-124" vertex="1">
          <mxGeometry width="40" height="50" as="geometry" />
        </mxCell>
        <mxCell id="rRr5-v546E61nDgylXeF-126" value="" style="triangle;whiteSpace=wrap;html=1;fillColor=#d5e8d4;strokeColor=#82b366;" parent="rRr5-v546E61nDgylXeF-124" vertex="1">
          <mxGeometry y="35.5" width="10" height="8.5" as="geometry" />
        </mxCell>
        <mxCell id="rRr5-v546E61nDgylXeF-244" value="" style="endArrow=classic;html=1;rounded=0;entryX=0.25;entryY=0;entryDx=0;entryDy=0;jumpStyle=arc;endFill=1;dashed=1;dashPattern=1 2;" parent="rRr5-v546E61nDgylXeF-124" edge="1">
          <mxGeometry width="50" height="50" relative="1" as="geometry">
            <mxPoint x="10" as="sourcePoint" />
            <mxPoint x="10" y="60" as="targetPoint" />
          </mxGeometry>
        </mxCell>
        <mxCell id="rRr5-v546E61nDgylXeF-127" value="" style="group" parent="1" vertex="1" connectable="0">
          <mxGeometry x="871" y="456.08" width="40" height="50" as="geometry" />
        </mxCell>
        <mxCell id="rRr5-v546E61nDgylXeF-128" value="&lt;font face=&quot;Garamond&quot;&gt;&lt;b&gt;Reg&lt;br&gt;(29,31)&lt;br&gt;&lt;br&gt;&lt;/b&gt;&lt;/font&gt;" style="rounded=0;whiteSpace=wrap;html=1;fillColor=#d5e8d4;strokeColor=#82b366;" parent="rRr5-v546E61nDgylXeF-127" vertex="1">
          <mxGeometry width="40" height="50" as="geometry" />
        </mxCell>
        <mxCell id="rRr5-v546E61nDgylXeF-130" value="" style="group" parent="1" vertex="1" connectable="0">
          <mxGeometry x="941" y="366.08" width="40" height="50" as="geometry" />
        </mxCell>
        <mxCell id="rRr5-v546E61nDgylXeF-131" value="&lt;font face=&quot;Garamond&quot;&gt;&lt;b&gt;Reg&lt;br&gt;(31,30)&lt;br&gt;&lt;br&gt;&lt;/b&gt;&lt;/font&gt;" style="rounded=0;whiteSpace=wrap;html=1;fillColor=#d5e8d4;strokeColor=#82b366;" parent="rRr5-v546E61nDgylXeF-130" vertex="1">
          <mxGeometry width="40" height="50" as="geometry" />
        </mxCell>
        <mxCell id="rRr5-v546E61nDgylXeF-132" value="" style="triangle;whiteSpace=wrap;html=1;fillColor=#d5e8d4;strokeColor=#82b366;" parent="rRr5-v546E61nDgylXeF-130" vertex="1">
          <mxGeometry y="35.5" width="10" height="8.5" as="geometry" />
        </mxCell>
        <mxCell id="rRr5-v546E61nDgylXeF-133" value="" style="group" parent="1" vertex="1" connectable="0">
          <mxGeometry x="941" y="426.08" width="40" height="50" as="geometry" />
        </mxCell>
        <mxCell id="rRr5-v546E61nDgylXeF-134" value="&lt;font face=&quot;Garamond&quot;&gt;&lt;b&gt;Reg&lt;br&gt;(30,31)&lt;br&gt;&lt;br&gt;&lt;/b&gt;&lt;/font&gt;" style="rounded=0;whiteSpace=wrap;html=1;fillColor=#d5e8d4;strokeColor=#82b366;" parent="rRr5-v546E61nDgylXeF-133" vertex="1">
          <mxGeometry width="40" height="50" as="geometry" />
        </mxCell>
        <mxCell id="rRr5-v546E61nDgylXeF-135" value="" style="triangle;whiteSpace=wrap;html=1;fillColor=#d5e8d4;strokeColor=#82b366;" parent="rRr5-v546E61nDgylXeF-133" vertex="1">
          <mxGeometry y="35.5" width="10" height="8.5" as="geometry" />
        </mxCell>
        <mxCell id="rRr5-v546E61nDgylXeF-136" value="" style="group" parent="1" vertex="1" connectable="0">
          <mxGeometry x="1011" y="396.08" width="40" height="50" as="geometry" />
        </mxCell>
        <mxCell id="rRr5-v546E61nDgylXeF-137" value="&lt;font face=&quot;Garamond&quot;&gt;&lt;b&gt;Reg&lt;br&gt;(31,31)&lt;br&gt;&lt;br&gt;&lt;/b&gt;&lt;/font&gt;" style="rounded=0;whiteSpace=wrap;html=1;fillColor=#d5e8d4;strokeColor=#82b366;" parent="rRr5-v546E61nDgylXeF-136" vertex="1">
          <mxGeometry width="40" height="50" as="geometry" />
        </mxCell>
        <mxCell id="rRr5-v546E61nDgylXeF-138" value="" style="triangle;whiteSpace=wrap;html=1;fillColor=#d5e8d4;strokeColor=#82b366;" parent="rRr5-v546E61nDgylXeF-136" vertex="1">
          <mxGeometry y="35.5" width="10" height="8.5" as="geometry" />
        </mxCell>
        <mxCell id="rRr5-v546E61nDgylXeF-139" value="&lt;font style=&quot;font-size: 40px;&quot;&gt;...&lt;/font&gt;" style="text;html=1;strokeColor=none;fillColor=none;align=center;verticalAlign=middle;whiteSpace=wrap;rounded=0;fontStyle=1;fontSize=100;rotation=0;" parent="1" vertex="1">
          <mxGeometry x="658" y="378.08" width="74" height="20" as="geometry" />
        </mxCell>
        <mxCell id="rRr5-v546E61nDgylXeF-140" value="&lt;font size=&quot;1&quot; face=&quot;Garamond&quot;&gt;&lt;b style=&quot;font-size: 18px;&quot;&gt;5952 -&amp;gt; 192&lt;/b&gt;&lt;/font&gt;" style="shape=trapezoid;perimeter=trapezoidPerimeter;whiteSpace=wrap;html=1;fixedSize=1;rotation=90;fillColor=#ffe6cc;strokeColor=#d79b00;" parent="1" vertex="1">
          <mxGeometry x="951" y="401.08" width="320" height="40" as="geometry" />
        </mxCell>
        <mxCell id="rRr5-v546E61nDgylXeF-141" value="" style="endArrow=none;html=1;rounded=0;endFill=0;startArrow=classic;startFill=1;" parent="1" edge="1">
          <mxGeometry width="50" height="50" relative="1" as="geometry">
            <mxPoint x="1091" y="406.08" as="sourcePoint" />
            <mxPoint x="1051" y="406.08" as="targetPoint" />
          </mxGeometry>
        </mxCell>
        <mxCell id="rRr5-v546E61nDgylXeF-142" value="" style="endArrow=classic;html=1;rounded=0;endFill=1;" parent="1" edge="1">
          <mxGeometry width="50" height="50" relative="1" as="geometry">
            <mxPoint x="981" y="376.08" as="sourcePoint" />
            <mxPoint x="1091" y="376.08" as="targetPoint" />
          </mxGeometry>
        </mxCell>
        <mxCell id="rRr5-v546E61nDgylXeF-146" value="" style="endArrow=classic;html=1;rounded=0;entryX=0.266;entryY=0.998;entryDx=0;entryDy=0;entryPerimeter=0;endFill=1;" parent="1" target="rRr5-v546E61nDgylXeF-140" edge="1">
          <mxGeometry width="50" height="50" relative="1" as="geometry">
            <mxPoint x="911" y="346.08" as="sourcePoint" />
            <mxPoint x="1081" y="349.08" as="targetPoint" />
          </mxGeometry>
        </mxCell>
        <mxCell id="rRr5-v546E61nDgylXeF-147" value="" style="endArrow=classic;html=1;rounded=0;exitX=1;exitY=0.25;exitDx=0;exitDy=0;endFill=1;" parent="1" edge="1">
          <mxGeometry width="50" height="50" relative="1" as="geometry">
            <mxPoint x="841" y="316.58" as="sourcePoint" />
            <mxPoint x="1091" y="316.08" as="targetPoint" />
          </mxGeometry>
        </mxCell>
        <mxCell id="rRr5-v546E61nDgylXeF-148" value="" style="endArrow=classic;html=1;rounded=0;endFill=0;" parent="1" edge="1">
          <mxGeometry width="50" height="50" relative="1" as="geometry">
            <mxPoint x="771" y="286.08" as="sourcePoint" />
            <mxPoint x="1091" y="286.08" as="targetPoint" />
          </mxGeometry>
        </mxCell>
        <mxCell id="rRr5-v546E61nDgylXeF-150" value="" style="endArrow=none;html=1;rounded=0;" parent="1" edge="1">
          <mxGeometry width="50" height="50" relative="1" as="geometry">
            <mxPoint x="981" y="436.08" as="sourcePoint" />
            <mxPoint x="991" y="376.08" as="targetPoint" />
            <Array as="points">
              <mxPoint x="991" y="436.08" />
            </Array>
          </mxGeometry>
        </mxCell>
        <mxCell id="rRr5-v546E61nDgylXeF-151" value="" style="endArrow=none;html=1;rounded=0;" parent="1" edge="1">
          <mxGeometry width="50" height="50" relative="1" as="geometry">
            <mxPoint x="911" y="406.08" as="sourcePoint" />
            <mxPoint x="916" y="346.08" as="targetPoint" />
            <Array as="points">
              <mxPoint x="916" y="406.08" />
            </Array>
          </mxGeometry>
        </mxCell>
        <mxCell id="rRr5-v546E61nDgylXeF-152" value="" style="endArrow=none;html=1;rounded=0;" parent="1" edge="1">
          <mxGeometry width="50" height="50" relative="1" as="geometry">
            <mxPoint x="841" y="376.08" as="sourcePoint" />
            <mxPoint x="846" y="316.08" as="targetPoint" />
            <Array as="points">
              <mxPoint x="846" y="376.08" />
            </Array>
          </mxGeometry>
        </mxCell>
        <mxCell id="rRr5-v546E61nDgylXeF-153" value="" style="endArrow=none;html=1;rounded=0;" parent="1" edge="1">
          <mxGeometry width="50" height="50" relative="1" as="geometry">
            <mxPoint x="771" y="346.08" as="sourcePoint" />
            <mxPoint x="776" y="286.08" as="targetPoint" />
            <Array as="points">
              <mxPoint x="776" y="346.08" />
            </Array>
          </mxGeometry>
        </mxCell>
        <mxCell id="rRr5-v546E61nDgylXeF-154" value="" style="endArrow=none;html=1;rounded=0;" parent="1" edge="1">
          <mxGeometry width="50" height="50" relative="1" as="geometry">
            <mxPoint x="771" y="526.08" as="sourcePoint" />
            <mxPoint x="785" y="286.08" as="targetPoint" />
            <Array as="points">
              <mxPoint x="785" y="526.08" />
            </Array>
          </mxGeometry>
        </mxCell>
        <mxCell id="rRr5-v546E61nDgylXeF-155" value="" style="endArrow=none;html=1;rounded=0;" parent="1" edge="1">
          <mxGeometry width="50" height="50" relative="1" as="geometry">
            <mxPoint x="771" y="466.08" as="sourcePoint" />
            <mxPoint x="782" y="286.08" as="targetPoint" />
            <Array as="points">
              <mxPoint x="782" y="466.08" />
            </Array>
          </mxGeometry>
        </mxCell>
        <mxCell id="rRr5-v546E61nDgylXeF-156" value="" style="endArrow=none;html=1;rounded=0;" parent="1" edge="1">
          <mxGeometry width="50" height="50" relative="1" as="geometry">
            <mxPoint x="771" y="406.08" as="sourcePoint" />
            <mxPoint x="779" y="286.08" as="targetPoint" />
            <Array as="points">
              <mxPoint x="779" y="406.08" />
            </Array>
          </mxGeometry>
        </mxCell>
        <mxCell id="rRr5-v546E61nDgylXeF-157" value="" style="endArrow=none;html=1;rounded=0;" parent="1" edge="1">
          <mxGeometry width="50" height="50" relative="1" as="geometry">
            <mxPoint x="841" y="436.08" as="sourcePoint" />
            <mxPoint x="849" y="317.08" as="targetPoint" />
            <Array as="points">
              <mxPoint x="849" y="436.08" />
            </Array>
          </mxGeometry>
        </mxCell>
        <mxCell id="rRr5-v546E61nDgylXeF-158" value="" style="endArrow=none;html=1;rounded=0;" parent="1" edge="1">
          <mxGeometry width="50" height="50" relative="1" as="geometry">
            <mxPoint x="841" y="496.08" as="sourcePoint" />
            <mxPoint x="852" y="317.08" as="targetPoint" />
            <Array as="points">
              <mxPoint x="852" y="496.08" />
            </Array>
          </mxGeometry>
        </mxCell>
        <mxCell id="rRr5-v546E61nDgylXeF-160" value="" style="endArrow=none;html=1;rounded=0;" parent="1" edge="1">
          <mxGeometry width="50" height="50" relative="1" as="geometry">
            <mxPoint x="911" y="465.08" as="sourcePoint" />
            <mxPoint x="919" y="346.08" as="targetPoint" />
            <Array as="points">
              <mxPoint x="919" y="465.08" />
            </Array>
          </mxGeometry>
        </mxCell>
        <mxCell id="rRr5-v546E61nDgylXeF-161" value="" style="endArrow=none;html=1;rounded=0;" parent="1" edge="1">
          <mxGeometry width="50" height="50" relative="1" as="geometry">
            <mxPoint x="826" y="291.08" as="sourcePoint" />
            <mxPoint x="836" y="281.08" as="targetPoint" />
          </mxGeometry>
        </mxCell>
        <mxCell id="rRr5-v546E61nDgylXeF-162" value="" style="endArrow=none;html=1;rounded=0;" parent="1" edge="1">
          <mxGeometry width="50" height="50" relative="1" as="geometry">
            <mxPoint x="896" y="321.08" as="sourcePoint" />
            <mxPoint x="906" y="311.08" as="targetPoint" />
          </mxGeometry>
        </mxCell>
        <mxCell id="rRr5-v546E61nDgylXeF-163" value="" style="endArrow=none;html=1;rounded=0;" parent="1" edge="1">
          <mxGeometry width="50" height="50" relative="1" as="geometry">
            <mxPoint x="965" y="351.08" as="sourcePoint" />
            <mxPoint x="975" y="341.08" as="targetPoint" />
          </mxGeometry>
        </mxCell>
        <mxCell id="rRr5-v546E61nDgylXeF-164" value="" style="endArrow=none;html=1;rounded=0;" parent="1" edge="1">
          <mxGeometry width="50" height="50" relative="1" as="geometry">
            <mxPoint x="1035" y="381.08" as="sourcePoint" />
            <mxPoint x="1045" y="371.08" as="targetPoint" />
          </mxGeometry>
        </mxCell>
        <mxCell id="rRr5-v546E61nDgylXeF-166" value="" style="endArrow=none;html=1;rounded=0;" parent="1" edge="1">
          <mxGeometry width="50" height="50" relative="1" as="geometry">
            <mxPoint x="651" y="526.08" as="sourcePoint" />
            <mxPoint x="656" y="576.08" as="targetPoint" />
            <Array as="points">
              <mxPoint x="656" y="526.08" />
            </Array>
          </mxGeometry>
        </mxCell>
        <mxCell id="rRr5-v546E61nDgylXeF-167" value="" style="endArrow=none;html=1;rounded=0;" parent="1" edge="1">
          <mxGeometry width="50" height="50" relative="1" as="geometry">
            <mxPoint x="651" y="466.08" as="sourcePoint" />
            <mxPoint x="659" y="576.08" as="targetPoint" />
            <Array as="points">
              <mxPoint x="659" y="466.08" />
            </Array>
          </mxGeometry>
        </mxCell>
        <mxCell id="rRr5-v546E61nDgylXeF-168" value="" style="endArrow=none;html=1;rounded=0;" parent="1" edge="1">
          <mxGeometry width="50" height="50" relative="1" as="geometry">
            <mxPoint x="651" y="406.08" as="sourcePoint" />
            <mxPoint x="662" y="576.08" as="targetPoint" />
            <Array as="points">
              <mxPoint x="662" y="406.08" />
            </Array>
          </mxGeometry>
        </mxCell>
        <mxCell id="rRr5-v546E61nDgylXeF-169" value="" style="endArrow=none;html=1;rounded=0;" parent="1" edge="1">
          <mxGeometry width="50" height="50" relative="1" as="geometry">
            <mxPoint x="651" y="346.08" as="sourcePoint" />
            <mxPoint x="665" y="576.08" as="targetPoint" />
            <Array as="points">
              <mxPoint x="665" y="346.08" />
            </Array>
          </mxGeometry>
        </mxCell>
        <mxCell id="rRr5-v546E61nDgylXeF-170" value="" style="endArrow=none;html=1;rounded=0;" parent="1" edge="1">
          <mxGeometry width="50" height="50" relative="1" as="geometry">
            <mxPoint x="651" y="286.08" as="sourcePoint" />
            <mxPoint x="668" y="576.08" as="targetPoint" />
            <Array as="points">
              <mxPoint x="668" y="286.08" />
            </Array>
          </mxGeometry>
        </mxCell>
        <mxCell id="rRr5-v546E61nDgylXeF-171" value="" style="endArrow=classic;html=1;rounded=0;entryX=0.547;entryY=1.004;entryDx=0;entryDy=0;entryPerimeter=0;endFill=1;" parent="1" target="rRr5-v546E61nDgylXeF-140" edge="1">
          <mxGeometry width="50" height="50" relative="1" as="geometry">
            <mxPoint x="655.5" y="576.08" as="sourcePoint" />
            <mxPoint x="901" y="576.08" as="targetPoint" />
            <Array as="points">
              <mxPoint x="1061" y="576.08" />
              <mxPoint x="1061" y="436.08" />
            </Array>
          </mxGeometry>
        </mxCell>
        <mxCell id="rRr5-v546E61nDgylXeF-172" value="" style="endArrow=none;html=1;rounded=0;" parent="1" edge="1">
          <mxGeometry width="50" height="50" relative="1" as="geometry">
            <mxPoint x="686" y="581.08" as="sourcePoint" />
            <mxPoint x="696" y="571.08" as="targetPoint" />
          </mxGeometry>
        </mxCell>
        <mxCell id="rRr5-v546E61nDgylXeF-173" value="" style="endArrow=none;html=1;rounded=0;" parent="1" edge="1">
          <mxGeometry width="50" height="50" relative="1" as="geometry">
            <mxPoint x="581" y="316.08" as="sourcePoint" />
            <mxPoint x="595" y="586.08" as="targetPoint" />
            <Array as="points">
              <mxPoint x="595" y="316.08" />
            </Array>
          </mxGeometry>
        </mxCell>
        <mxCell id="rRr5-v546E61nDgylXeF-174" value="" style="endArrow=none;html=1;rounded=0;" parent="1" edge="1">
          <mxGeometry width="50" height="50" relative="1" as="geometry">
            <mxPoint x="581" y="376.08" as="sourcePoint" />
            <mxPoint x="592" y="586.08" as="targetPoint" />
            <Array as="points">
              <mxPoint x="592" y="376.08" />
            </Array>
          </mxGeometry>
        </mxCell>
        <mxCell id="rRr5-v546E61nDgylXeF-175" value="" style="endArrow=none;html=1;rounded=0;" parent="1" edge="1">
          <mxGeometry width="50" height="50" relative="1" as="geometry">
            <mxPoint x="581" y="436.08" as="sourcePoint" />
            <mxPoint x="589" y="586.08" as="targetPoint" />
            <Array as="points">
              <mxPoint x="589" y="436.08" />
            </Array>
          </mxGeometry>
        </mxCell>
        <mxCell id="rRr5-v546E61nDgylXeF-176" value="" style="endArrow=none;html=1;rounded=0;" parent="1" edge="1">
          <mxGeometry width="50" height="50" relative="1" as="geometry">
            <mxPoint x="581" y="496.08" as="sourcePoint" />
            <mxPoint x="586" y="586.08" as="targetPoint" />
            <Array as="points">
              <mxPoint x="586" y="496.08" />
            </Array>
          </mxGeometry>
        </mxCell>
        <mxCell id="rRr5-v546E61nDgylXeF-177" value="" style="endArrow=none;html=1;rounded=0;" parent="1" edge="1">
          <mxGeometry width="50" height="50" relative="1" as="geometry">
            <mxPoint x="511" y="346.08" as="sourcePoint" />
            <mxPoint x="522" y="596.08" as="targetPoint" />
            <Array as="points">
              <mxPoint x="522" y="346.08" />
            </Array>
          </mxGeometry>
        </mxCell>
        <mxCell id="rRr5-v546E61nDgylXeF-178" value="" style="endArrow=none;html=1;rounded=0;" parent="1" edge="1">
          <mxGeometry width="50" height="50" relative="1" as="geometry">
            <mxPoint x="511" y="406.08" as="sourcePoint" />
            <mxPoint x="519" y="596.08" as="targetPoint" />
            <Array as="points">
              <mxPoint x="519" y="406.08" />
            </Array>
          </mxGeometry>
        </mxCell>
        <mxCell id="rRr5-v546E61nDgylXeF-179" value="" style="endArrow=none;html=1;rounded=0;" parent="1" edge="1">
          <mxGeometry width="50" height="50" relative="1" as="geometry">
            <mxPoint x="511" y="466.08" as="sourcePoint" />
            <mxPoint x="516" y="596.08" as="targetPoint" />
            <Array as="points">
              <mxPoint x="516" y="466.08" />
            </Array>
          </mxGeometry>
        </mxCell>
        <mxCell id="rRr5-v546E61nDgylXeF-180" value="" style="endArrow=none;html=1;rounded=0;" parent="1" edge="1">
          <mxGeometry width="50" height="50" relative="1" as="geometry">
            <mxPoint x="441" y="376.08" as="sourcePoint" />
            <mxPoint x="449" y="606.08" as="targetPoint" />
            <Array as="points">
              <mxPoint x="449" y="376.08" />
            </Array>
          </mxGeometry>
        </mxCell>
        <mxCell id="rRr5-v546E61nDgylXeF-181" value="" style="endArrow=none;html=1;rounded=0;" parent="1" edge="1">
          <mxGeometry width="50" height="50" relative="1" as="geometry">
            <mxPoint x="441" y="436.08" as="sourcePoint" />
            <mxPoint x="446" y="606.08" as="targetPoint" />
            <Array as="points">
              <mxPoint x="446" y="436.08" />
            </Array>
          </mxGeometry>
        </mxCell>
        <mxCell id="rRr5-v546E61nDgylXeF-185" value="" style="endArrow=none;html=1;rounded=0;" parent="1" edge="1">
          <mxGeometry width="50" height="50" relative="1" as="geometry">
            <mxPoint x="371" y="406.08" as="sourcePoint" />
            <mxPoint x="376" y="616.08" as="targetPoint" />
            <Array as="points">
              <mxPoint x="376" y="406.08" />
            </Array>
          </mxGeometry>
        </mxCell>
        <mxCell id="rRr5-v546E61nDgylXeF-186" value="" style="endArrow=classic;html=1;rounded=0;entryX=0.64;entryY=0.995;entryDx=0;entryDy=0;entryPerimeter=0;endFill=1;" parent="1" edge="1">
          <mxGeometry width="50" height="50" relative="1" as="geometry">
            <mxPoint x="585.5" y="586.08" as="sourcePoint" />
            <mxPoint x="1091" y="465.87999999999994" as="targetPoint" />
            <Array as="points">
              <mxPoint x="1065" y="586.08" />
              <mxPoint x="1065" y="466.08" />
            </Array>
          </mxGeometry>
        </mxCell>
        <mxCell id="rRr5-v546E61nDgylXeF-187" value="" style="endArrow=classic;html=1;rounded=0;endFill=1;" parent="1" edge="1">
          <mxGeometry width="50" height="50" relative="1" as="geometry">
            <mxPoint x="515.5" y="596.08" as="sourcePoint" />
            <mxPoint x="1091" y="496.08" as="targetPoint" />
            <Array as="points">
              <mxPoint x="1069" y="596.08" />
              <mxPoint x="1069" y="496.08" />
            </Array>
          </mxGeometry>
        </mxCell>
        <mxCell id="rRr5-v546E61nDgylXeF-188" value="" style="endArrow=classic;html=1;rounded=0;entryX=0.827;entryY=1.002;entryDx=0;entryDy=0;entryPerimeter=0;endFill=1;" parent="1" edge="1">
          <mxGeometry width="50" height="50" relative="1" as="geometry">
            <mxPoint x="445.5" y="606.44" as="sourcePoint" />
            <mxPoint x="1091" y="526.08" as="targetPoint" />
            <Array as="points">
              <mxPoint x="1073" y="606.08" />
              <mxPoint x="1073" y="526.08" />
            </Array>
          </mxGeometry>
        </mxCell>
        <mxCell id="rRr5-v546E61nDgylXeF-189" value="" style="endArrow=classic;html=1;rounded=0;entryX=0.922;entryY=0.999;entryDx=0;entryDy=0;entryPerimeter=0;endFill=1;" parent="1" edge="1">
          <mxGeometry width="50" height="50" relative="1" as="geometry">
            <mxPoint x="375.5" y="616.08" as="sourcePoint" />
            <mxPoint x="1091" y="556.1199999999999" as="targetPoint" />
            <Array as="points">
              <mxPoint x="1077" y="616.08" />
              <mxPoint x="1077" y="556.08" />
            </Array>
          </mxGeometry>
        </mxCell>
        <mxCell id="rRr5-v546E61nDgylXeF-191" value="&lt;font size=&quot;1&quot; style=&quot;&quot; face=&quot;Garamond&quot;&gt;&lt;b style=&quot;font-size: 18px;&quot;&gt;192 -&amp;gt; 12&lt;/b&gt;&lt;/font&gt;" style="shape=trapezoid;perimeter=trapezoidPerimeter;whiteSpace=wrap;html=1;fixedSize=1;rotation=90;fillColor=#ffe6cc;strokeColor=#d79b00;" parent="1" vertex="1">
          <mxGeometry x="1111" y="401.08" width="220" height="40" as="geometry" />
        </mxCell>
        <mxCell id="rRr5-v546E61nDgylXeF-192" value="&lt;b&gt;&lt;font style=&quot;font-size: 18px;&quot; face=&quot;Garamond&quot;&gt;12 -&amp;gt; 3&lt;/font&gt;&lt;/b&gt;" style="shape=trapezoid;perimeter=trapezoidPerimeter;whiteSpace=wrap;html=1;fixedSize=1;rotation=90;fillColor=#ffe6cc;strokeColor=#d79b00;" parent="1" vertex="1">
          <mxGeometry x="1261" y="401.08" width="140" height="40" as="geometry" />
        </mxCell>
        <mxCell id="rRr5-v546E61nDgylXeF-194" value="" style="endArrow=none;html=1;rounded=0;" parent="1" edge="1">
          <mxGeometry width="50" height="50" relative="1" as="geometry">
            <mxPoint x="696" y="591.08" as="sourcePoint" />
            <mxPoint x="706" y="581.08" as="targetPoint" />
          </mxGeometry>
        </mxCell>
        <mxCell id="rRr5-v546E61nDgylXeF-195" value="" style="endArrow=none;html=1;rounded=0;" parent="1" edge="1">
          <mxGeometry width="50" height="50" relative="1" as="geometry">
            <mxPoint x="706" y="601.08" as="sourcePoint" />
            <mxPoint x="716" y="591.08" as="targetPoint" />
          </mxGeometry>
        </mxCell>
        <mxCell id="rRr5-v546E61nDgylXeF-196" value="" style="endArrow=none;html=1;rounded=0;" parent="1" edge="1">
          <mxGeometry width="50" height="50" relative="1" as="geometry">
            <mxPoint x="716" y="611.08" as="sourcePoint" />
            <mxPoint x="726" y="601.08" as="targetPoint" />
          </mxGeometry>
        </mxCell>
        <mxCell id="rRr5-v546E61nDgylXeF-197" value="" style="endArrow=none;html=1;rounded=0;" parent="1" edge="1">
          <mxGeometry width="50" height="50" relative="1" as="geometry">
            <mxPoint x="726" y="621.08" as="sourcePoint" />
            <mxPoint x="736" y="611.08" as="targetPoint" />
          </mxGeometry>
        </mxCell>
        <mxCell id="rRr5-v546E61nDgylXeF-198" value="" style="endArrow=none;html=1;rounded=0;" parent="1" edge="1">
          <mxGeometry width="50" height="50" relative="1" as="geometry">
            <mxPoint x="251" y="246.07999999999998" as="sourcePoint" />
            <mxPoint x="1001" y="246.07999999999998" as="targetPoint" />
          </mxGeometry>
        </mxCell>
        <mxCell id="rRr5-v546E61nDgylXeF-199" value="" style="endArrow=none;html=1;rounded=0;exitX=-0.006;exitY=0.203;exitDx=0;exitDy=0;exitPerimeter=0;jumpStyle=arc;" parent="1" source="rRr5-v546E61nDgylXeF-137" edge="1">
          <mxGeometry width="50" height="50" relative="1" as="geometry">
            <mxPoint x="631" y="416.08" as="sourcePoint" />
            <mxPoint x="1001" y="246.07999999999998" as="targetPoint" />
            <Array as="points">
              <mxPoint x="1001" y="406.08" />
            </Array>
          </mxGeometry>
        </mxCell>
        <mxCell id="rRr5-v546E61nDgylXeF-200" value="" style="endArrow=none;html=1;rounded=0;exitX=-0.011;exitY=0.199;exitDx=0;exitDy=0;exitPerimeter=0;jumpStyle=arc;startArrow=classic;startFill=1;" parent="1" source="rRr5-v546E61nDgylXeF-131" edge="1">
          <mxGeometry width="50" height="50" relative="1" as="geometry">
            <mxPoint x="871" y="356.08" as="sourcePoint" />
            <mxPoint x="931" y="246.07999999999998" as="targetPoint" />
            <Array as="points">
              <mxPoint x="931" y="376.08" />
            </Array>
          </mxGeometry>
        </mxCell>
        <mxCell id="rRr5-v546E61nDgylXeF-201" value="" style="endArrow=none;html=1;rounded=0;exitX=-0.006;exitY=0.203;exitDx=0;exitDy=0;exitPerimeter=0;startArrow=classic;startFill=1;" parent="1" source="rRr5-v546E61nDgylXeF-134" edge="1">
          <mxGeometry width="50" height="50" relative="1" as="geometry">
            <mxPoint x="871" y="446.08" as="sourcePoint" />
            <mxPoint x="931" y="376.08" as="targetPoint" />
            <Array as="points">
              <mxPoint x="931" y="436.08" />
            </Array>
          </mxGeometry>
        </mxCell>
        <mxCell id="rRr5-v546E61nDgylXeF-202" value="" style="endArrow=none;html=1;rounded=0;exitX=-0.003;exitY=0.203;exitDx=0;exitDy=0;exitPerimeter=0;jumpStyle=arc;startArrow=classic;startFill=1;" parent="1" source="rRr5-v546E61nDgylXeF-122" edge="1">
          <mxGeometry width="50" height="50" relative="1" as="geometry">
            <mxPoint x="901" y="356.08" as="sourcePoint" />
            <mxPoint x="861" y="246.07999999999998" as="targetPoint" />
            <Array as="points">
              <mxPoint x="861" y="346.08" />
            </Array>
          </mxGeometry>
        </mxCell>
        <mxCell id="rRr5-v546E61nDgylXeF-203" value="" style="endArrow=none;html=1;rounded=0;exitX=0.003;exitY=0.197;exitDx=0;exitDy=0;exitPerimeter=0;startArrow=classic;startFill=1;" parent="1" source="rRr5-v546E61nDgylXeF-125" edge="1">
          <mxGeometry width="50" height="50" relative="1" as="geometry">
            <mxPoint x="901" y="456.08" as="sourcePoint" />
            <mxPoint x="861" y="346.08" as="targetPoint" />
            <Array as="points">
              <mxPoint x="861" y="406.08" />
            </Array>
          </mxGeometry>
        </mxCell>
        <mxCell id="rRr5-v546E61nDgylXeF-204" value="" style="endArrow=none;html=1;rounded=0;exitX=-0.003;exitY=0.197;exitDx=0;exitDy=0;exitPerimeter=0;startArrow=classic;startFill=1;" parent="1" source="rRr5-v546E61nDgylXeF-128" edge="1">
          <mxGeometry width="50" height="50" relative="1" as="geometry">
            <mxPoint x="901" y="486.08" as="sourcePoint" />
            <mxPoint x="861" y="406.08" as="targetPoint" />
            <Array as="points">
              <mxPoint x="861" y="466.08" />
            </Array>
          </mxGeometry>
        </mxCell>
        <mxCell id="rRr5-v546E61nDgylXeF-205" value="" style="endArrow=none;html=1;rounded=0;jumpStyle=arc;startArrow=classic;startFill=1;" parent="1" edge="1">
          <mxGeometry width="50" height="50" relative="1" as="geometry">
            <mxPoint x="801" y="316.08" as="sourcePoint" />
            <mxPoint x="791" y="246.07999999999998" as="targetPoint" />
            <Array as="points">
              <mxPoint x="791" y="316.08" />
            </Array>
          </mxGeometry>
        </mxCell>
        <mxCell id="rRr5-v546E61nDgylXeF-206" value="" style="endArrow=none;html=1;rounded=0;exitX=-0.002;exitY=0.198;exitDx=0;exitDy=0;exitPerimeter=0;startArrow=classic;startFill=1;" parent="1" source="rRr5-v546E61nDgylXeF-110" edge="1">
          <mxGeometry width="50" height="50" relative="1" as="geometry">
            <mxPoint x="781" y="436.08" as="sourcePoint" />
            <mxPoint x="791" y="316.08" as="targetPoint" />
            <Array as="points">
              <mxPoint x="791" y="376.08" />
            </Array>
          </mxGeometry>
        </mxCell>
        <mxCell id="rRr5-v546E61nDgylXeF-207" value="" style="endArrow=none;html=1;rounded=0;startArrow=classic;startFill=1;" parent="1" edge="1">
          <mxGeometry width="50" height="50" relative="1" as="geometry">
            <mxPoint x="801" y="436.08" as="sourcePoint" />
            <mxPoint x="791" y="376.08" as="targetPoint" />
            <Array as="points">
              <mxPoint x="791" y="436.08" />
            </Array>
          </mxGeometry>
        </mxCell>
        <mxCell id="rRr5-v546E61nDgylXeF-208" value="" style="endArrow=none;html=1;rounded=0;exitX=-0.002;exitY=0.198;exitDx=0;exitDy=0;exitPerimeter=0;startArrow=classic;startFill=1;" parent="1" source="rRr5-v546E61nDgylXeF-119" edge="1">
          <mxGeometry width="50" height="50" relative="1" as="geometry">
            <mxPoint x="781" y="516.08" as="sourcePoint" />
            <mxPoint x="791" y="436.08" as="targetPoint" />
            <Array as="points">
              <mxPoint x="791" y="496.08" />
            </Array>
          </mxGeometry>
        </mxCell>
        <mxCell id="rRr5-v546E61nDgylXeF-209" value="" style="endArrow=none;html=1;rounded=0;startArrow=classic;startFill=1;" parent="1" edge="1">
          <mxGeometry width="50" height="50" relative="1" as="geometry">
            <mxPoint x="611" y="286.08" as="sourcePoint" />
            <mxPoint x="601" y="246.07999999999998" as="targetPoint" />
            <Array as="points">
              <mxPoint x="601" y="286.08" />
            </Array>
          </mxGeometry>
        </mxCell>
        <mxCell id="rRr5-v546E61nDgylXeF-210" value="" style="endArrow=none;html=1;rounded=0;startArrow=classic;startFill=1;" parent="1" edge="1">
          <mxGeometry width="50" height="50" relative="1" as="geometry">
            <mxPoint x="611" y="346.08" as="sourcePoint" />
            <mxPoint x="601" y="286.08" as="targetPoint" />
            <Array as="points">
              <mxPoint x="601" y="346.08" />
            </Array>
          </mxGeometry>
        </mxCell>
        <mxCell id="rRr5-v546E61nDgylXeF-211" value="" style="endArrow=none;html=1;rounded=0;startArrow=classic;startFill=1;" parent="1" edge="1">
          <mxGeometry width="50" height="50" relative="1" as="geometry">
            <mxPoint x="611" y="406.08" as="sourcePoint" />
            <mxPoint x="601" y="346.08" as="targetPoint" />
            <Array as="points">
              <mxPoint x="601" y="406.08" />
            </Array>
          </mxGeometry>
        </mxCell>
        <mxCell id="rRr5-v546E61nDgylXeF-212" value="" style="endArrow=none;html=1;rounded=0;startArrow=classic;startFill=1;" parent="1" edge="1">
          <mxGeometry width="50" height="50" relative="1" as="geometry">
            <mxPoint x="611" y="466.08" as="sourcePoint" />
            <mxPoint x="601" y="406.08" as="targetPoint" />
            <Array as="points">
              <mxPoint x="601" y="466.08" />
            </Array>
          </mxGeometry>
        </mxCell>
        <mxCell id="rRr5-v546E61nDgylXeF-213" value="" style="endArrow=none;html=1;rounded=0;exitX=0.002;exitY=0.199;exitDx=0;exitDy=0;exitPerimeter=0;startArrow=classic;startFill=1;" parent="1" source="rRr5-v546E61nDgylXeF-70" edge="1">
          <mxGeometry width="50" height="50" relative="1" as="geometry">
            <mxPoint x="611" y="536.08" as="sourcePoint" />
            <mxPoint x="601" y="466.08" as="targetPoint" />
            <Array as="points">
              <mxPoint x="601" y="526.08" />
            </Array>
          </mxGeometry>
        </mxCell>
        <mxCell id="rRr5-v546E61nDgylXeF-214" value="" style="endArrow=none;html=1;rounded=0;exitX=0;exitY=0.2;exitDx=0;exitDy=0;exitPerimeter=0;startArrow=classic;startFill=1;" parent="1" source="rRr5-v546E61nDgylXeF-36" edge="1">
          <mxGeometry width="50" height="50" relative="1" as="geometry">
            <mxPoint x="681" y="416.08" as="sourcePoint" />
            <mxPoint x="531" y="246.07999999999998" as="targetPoint" />
            <Array as="points">
              <mxPoint x="531" y="316.08" />
            </Array>
          </mxGeometry>
        </mxCell>
        <mxCell id="rRr5-v546E61nDgylXeF-215" value="" style="endArrow=none;html=1;rounded=0;exitX=-0.006;exitY=0.203;exitDx=0;exitDy=0;exitPerimeter=0;startArrow=classic;startFill=1;" parent="1" source="rRr5-v546E61nDgylXeF-30" edge="1">
          <mxGeometry width="50" height="50" relative="1" as="geometry">
            <mxPoint x="581" y="416.08" as="sourcePoint" />
            <mxPoint x="531" y="316.08" as="targetPoint" />
            <Array as="points">
              <mxPoint x="531" y="376.08" />
            </Array>
          </mxGeometry>
        </mxCell>
        <mxCell id="rRr5-v546E61nDgylXeF-216" value="" style="endArrow=none;html=1;rounded=0;exitX=-0.004;exitY=0.2;exitDx=0;exitDy=0;exitPerimeter=0;startArrow=classic;startFill=1;" parent="1" source="rRr5-v546E61nDgylXeF-33" edge="1">
          <mxGeometry width="50" height="50" relative="1" as="geometry">
            <mxPoint x="581" y="476.08" as="sourcePoint" />
            <mxPoint x="531" y="376.08" as="targetPoint" />
            <Array as="points">
              <mxPoint x="531" y="436.08" />
            </Array>
          </mxGeometry>
        </mxCell>
        <mxCell id="rRr5-v546E61nDgylXeF-217" value="" style="endArrow=none;html=1;rounded=0;exitX=-0.002;exitY=0.201;exitDx=0;exitDy=0;exitPerimeter=0;startArrow=classic;startFill=1;" parent="1" source="rRr5-v546E61nDgylXeF-39" edge="1">
          <mxGeometry width="50" height="50" relative="1" as="geometry">
            <mxPoint x="581" y="516.08" as="sourcePoint" />
            <mxPoint x="531" y="436.08" as="targetPoint" />
            <Array as="points">
              <mxPoint x="531" y="496.08" />
            </Array>
          </mxGeometry>
        </mxCell>
        <mxCell id="rRr5-v546E61nDgylXeF-218" value="" style="endArrow=none;html=1;rounded=0;exitX=-0.004;exitY=0.199;exitDx=0;exitDy=0;exitPerimeter=0;startArrow=classic;startFill=1;" parent="1" source="rRr5-v546E61nDgylXeF-27" edge="1">
          <mxGeometry width="50" height="50" relative="1" as="geometry">
            <mxPoint x="461" y="346.08" as="sourcePoint" />
            <mxPoint x="461" y="246.07999999999998" as="targetPoint" />
            <Array as="points">
              <mxPoint x="461" y="346.08" />
            </Array>
          </mxGeometry>
        </mxCell>
        <mxCell id="rRr5-v546E61nDgylXeF-219" value="" style="endArrow=none;html=1;rounded=0;startArrow=classic;startFill=1;" parent="1" edge="1">
          <mxGeometry width="50" height="50" relative="1" as="geometry">
            <mxPoint x="471" y="406.08" as="sourcePoint" />
            <mxPoint x="461" y="346.08" as="targetPoint" />
            <Array as="points">
              <mxPoint x="461" y="406.08" />
            </Array>
          </mxGeometry>
        </mxCell>
        <mxCell id="rRr5-v546E61nDgylXeF-220" value="" style="endArrow=none;html=1;rounded=0;startArrow=classic;startFill=1;" parent="1" edge="1">
          <mxGeometry width="50" height="50" relative="1" as="geometry">
            <mxPoint x="471" y="466.08" as="sourcePoint" />
            <mxPoint x="461" y="406.08" as="targetPoint" />
            <Array as="points">
              <mxPoint x="461" y="466.08" />
            </Array>
          </mxGeometry>
        </mxCell>
        <mxCell id="rRr5-v546E61nDgylXeF-221" value="" style="endArrow=none;html=1;rounded=0;startArrow=classic;startFill=1;" parent="1" edge="1">
          <mxGeometry width="50" height="50" relative="1" as="geometry">
            <mxPoint x="401" y="376.08" as="sourcePoint" />
            <mxPoint x="391" y="246.07999999999998" as="targetPoint" />
            <Array as="points">
              <mxPoint x="391" y="376.08" />
            </Array>
          </mxGeometry>
        </mxCell>
        <mxCell id="rRr5-v546E61nDgylXeF-222" value="" style="endArrow=none;html=1;rounded=0;exitX=-0.001;exitY=0.201;exitDx=0;exitDy=0;exitPerimeter=0;startArrow=classic;startFill=1;" parent="1" source="rRr5-v546E61nDgylXeF-16" edge="1">
          <mxGeometry width="50" height="50" relative="1" as="geometry">
            <mxPoint x="421" y="436.08" as="sourcePoint" />
            <mxPoint x="391" y="376.08" as="targetPoint" />
            <Array as="points">
              <mxPoint x="391" y="436.08" />
            </Array>
          </mxGeometry>
        </mxCell>
        <mxCell id="rRr5-v546E61nDgylXeF-223" value="" style="endArrow=none;html=1;rounded=0;exitX=-0.002;exitY=0.2;exitDx=0;exitDy=0;exitPerimeter=0;startArrow=classic;startFill=1;" parent="1" source="CMkSENSF9rFQuJip62t_-91" edge="1">
          <mxGeometry width="50" height="50" relative="1" as="geometry">
            <mxPoint x="391" y="366.08" as="sourcePoint" />
            <mxPoint x="321" y="246.07999999999998" as="targetPoint" />
            <Array as="points">
              <mxPoint x="321" y="406.08" />
            </Array>
          </mxGeometry>
        </mxCell>
        <mxCell id="rRr5-v546E61nDgylXeF-224" value="" style="endArrow=none;html=1;rounded=0;startArrow=classic;startFill=1;" parent="1" edge="1">
          <mxGeometry width="50" height="50" relative="1" as="geometry">
            <mxPoint x="731" y="286.08" as="sourcePoint" />
            <mxPoint x="721" y="246.07999999999998" as="targetPoint" />
            <Array as="points">
              <mxPoint x="721" y="286.08" />
            </Array>
          </mxGeometry>
        </mxCell>
        <mxCell id="rRr5-v546E61nDgylXeF-225" value="" style="endArrow=none;html=1;rounded=0;startArrow=classic;startFill=1;" parent="1" edge="1">
          <mxGeometry width="50" height="50" relative="1" as="geometry">
            <mxPoint x="731" y="346.08" as="sourcePoint" />
            <mxPoint x="721" y="286.08" as="targetPoint" />
            <Array as="points">
              <mxPoint x="721" y="346.08" />
            </Array>
          </mxGeometry>
        </mxCell>
        <mxCell id="rRr5-v546E61nDgylXeF-226" value="" style="endArrow=none;html=1;rounded=0;startArrow=classic;startFill=1;" parent="1" edge="1">
          <mxGeometry width="50" height="50" relative="1" as="geometry">
            <mxPoint x="731" y="406.08" as="sourcePoint" />
            <mxPoint x="721" y="346.08" as="targetPoint" />
            <Array as="points">
              <mxPoint x="721" y="406.08" />
            </Array>
          </mxGeometry>
        </mxCell>
        <mxCell id="rRr5-v546E61nDgylXeF-227" value="" style="endArrow=none;html=1;rounded=0;startArrow=classic;startFill=1;" parent="1" edge="1">
          <mxGeometry width="50" height="50" relative="1" as="geometry">
            <mxPoint x="731" y="466.08" as="sourcePoint" />
            <mxPoint x="721" y="406.08" as="targetPoint" />
            <Array as="points">
              <mxPoint x="721" y="466.08" />
            </Array>
          </mxGeometry>
        </mxCell>
        <mxCell id="rRr5-v546E61nDgylXeF-228" value="" style="endArrow=none;html=1;rounded=0;exitX=0.002;exitY=0.199;exitDx=0;exitDy=0;exitPerimeter=0;startArrow=classic;startFill=1;" parent="1" edge="1">
          <mxGeometry width="50" height="50" relative="1" as="geometry">
            <mxPoint x="731" y="526.08" as="sourcePoint" />
            <mxPoint x="721" y="466.08" as="targetPoint" />
            <Array as="points">
              <mxPoint x="721" y="526.08" />
            </Array>
          </mxGeometry>
        </mxCell>
        <mxCell id="rRr5-v546E61nDgylXeF-229" value="" style="endArrow=classic;html=1;rounded=0;exitX=0.5;exitY=0;exitDx=0;exitDy=0;entryX=0.5;entryY=1;entryDx=0;entryDy=0;" parent="1" source="rRr5-v546E61nDgylXeF-140" target="rRr5-v546E61nDgylXeF-191" edge="1">
          <mxGeometry width="50" height="50" relative="1" as="geometry">
            <mxPoint x="941" y="516.08" as="sourcePoint" />
            <mxPoint x="991" y="466.08" as="targetPoint" />
          </mxGeometry>
        </mxCell>
        <mxCell id="rRr5-v546E61nDgylXeF-230" value="" style="endArrow=classic;html=1;rounded=0;exitX=0.5;exitY=0;exitDx=0;exitDy=0;" parent="1" source="rRr5-v546E61nDgylXeF-191" target="rRr5-v546E61nDgylXeF-192" edge="1">
          <mxGeometry width="50" height="50" relative="1" as="geometry">
            <mxPoint x="1330" y="556.08" as="sourcePoint" />
            <mxPoint x="1380" y="506.08000000000004" as="targetPoint" />
          </mxGeometry>
        </mxCell>
        <mxCell id="rRr5-v546E61nDgylXeF-231" value="" style="endArrow=classic;html=1;rounded=0;entryX=0.25;entryY=0;entryDx=0;entryDy=0;jumpStyle=arc;" parent="1" target="CMkSENSF9rFQuJip62t_-91" edge="1">
          <mxGeometry width="50" height="50" relative="1" as="geometry">
            <mxPoint x="341" y="216.07999999999998" as="sourcePoint" />
            <mxPoint x="751" y="366.08" as="targetPoint" />
          </mxGeometry>
        </mxCell>
        <mxCell id="rRr5-v546E61nDgylXeF-232" value="" style="endArrow=classic;html=1;rounded=0;jumpStyle=arc;" parent="1" edge="1">
          <mxGeometry width="50" height="50" relative="1" as="geometry">
            <mxPoint x="411" y="216.07999999999998" as="sourcePoint" />
            <mxPoint x="411" y="366.08" as="targetPoint" />
          </mxGeometry>
        </mxCell>
        <mxCell id="rRr5-v546E61nDgylXeF-233" value="" style="endArrow=classic;html=1;rounded=0;entryX=0.25;entryY=0;entryDx=0;entryDy=0;jumpStyle=arc;" parent="1" target="rRr5-v546E61nDgylXeF-27" edge="1">
          <mxGeometry width="50" height="50" relative="1" as="geometry">
            <mxPoint x="481" y="216.07999999999998" as="sourcePoint" />
            <mxPoint x="527" y="176.07999999999998" as="targetPoint" />
          </mxGeometry>
        </mxCell>
        <mxCell id="rRr5-v546E61nDgylXeF-234" value="" style="endArrow=classic;html=1;rounded=0;entryX=0.25;entryY=0;entryDx=0;entryDy=0;jumpStyle=arc;" parent="1" target="rRr5-v546E61nDgylXeF-36" edge="1">
          <mxGeometry width="50" height="50" relative="1" as="geometry">
            <mxPoint x="551" y="216.07999999999998" as="sourcePoint" />
            <mxPoint x="801" y="366.08" as="targetPoint" />
          </mxGeometry>
        </mxCell>
        <mxCell id="rRr5-v546E61nDgylXeF-235" value="" style="endArrow=classic;html=1;rounded=0;entryX=0.25;entryY=0;entryDx=0;entryDy=0;jumpStyle=arc;" parent="1" target="rRr5-v546E61nDgylXeF-42" edge="1">
          <mxGeometry width="50" height="50" relative="1" as="geometry">
            <mxPoint x="621" y="216.07999999999998" as="sourcePoint" />
            <mxPoint x="801" y="366.08" as="targetPoint" />
          </mxGeometry>
        </mxCell>
        <mxCell id="rRr5-v546E61nDgylXeF-236" value="" style="endArrow=classic;html=1;rounded=0;entryX=0.25;entryY=0;entryDx=0;entryDy=0;jumpStyle=arc;" parent="1" target="rRr5-v546E61nDgylXeF-94" edge="1">
          <mxGeometry width="50" height="50" relative="1" as="geometry">
            <mxPoint x="741" y="216.07999999999998" as="sourcePoint" />
            <mxPoint x="961" y="366.08" as="targetPoint" />
          </mxGeometry>
        </mxCell>
        <mxCell id="rRr5-v546E61nDgylXeF-237" value="" style="endArrow=classic;html=1;rounded=0;entryX=0.25;entryY=0;entryDx=0;entryDy=0;jumpStyle=arc;" parent="1" target="rRr5-v546E61nDgylXeF-113" edge="1">
          <mxGeometry width="50" height="50" relative="1" as="geometry">
            <mxPoint x="811" y="216.07999999999998" as="sourcePoint" />
            <mxPoint x="961" y="366.08" as="targetPoint" />
          </mxGeometry>
        </mxCell>
        <mxCell id="rRr5-v546E61nDgylXeF-238" value="" style="endArrow=classic;html=1;rounded=0;entryX=0.25;entryY=0;entryDx=0;entryDy=0;jumpStyle=arc;endFill=1;" parent="1" target="rRr5-v546E61nDgylXeF-122" edge="1">
          <mxGeometry width="50" height="50" relative="1" as="geometry">
            <mxPoint x="881" y="216.07999999999998" as="sourcePoint" />
            <mxPoint x="961" y="366.08" as="targetPoint" />
          </mxGeometry>
        </mxCell>
        <mxCell id="rRr5-v546E61nDgylXeF-239" value="" style="endArrow=classic;html=1;rounded=0;entryX=0.25;entryY=0;entryDx=0;entryDy=0;jumpStyle=arc;" parent="1" target="rRr5-v546E61nDgylXeF-131" edge="1">
          <mxGeometry width="50" height="50" relative="1" as="geometry">
            <mxPoint x="951" y="216.07999999999998" as="sourcePoint" />
            <mxPoint x="961" y="366.08" as="targetPoint" />
          </mxGeometry>
        </mxCell>
        <mxCell id="rRr5-v546E61nDgylXeF-240" value="" style="endArrow=classic;html=1;rounded=0;jumpStyle=arc;" parent="1" edge="1">
          <mxGeometry width="50" height="50" relative="1" as="geometry">
            <mxPoint x="1021" y="216.07999999999998" as="sourcePoint" />
            <mxPoint x="1021" y="396.08" as="targetPoint" />
          </mxGeometry>
        </mxCell>
        <mxCell id="rRr5-v546E61nDgylXeF-242" value="" style="endArrow=classic;html=1;rounded=0;entryX=0.25;entryY=0;entryDx=0;entryDy=0;jumpStyle=arc;dashed=1;dashPattern=1 2;" parent="1" edge="1">
          <mxGeometry width="50" height="50" relative="1" as="geometry">
            <mxPoint x="951" y="366.08" as="sourcePoint" />
            <mxPoint x="951" y="426.08" as="targetPoint" />
          </mxGeometry>
        </mxCell>
        <mxCell id="rRr5-v546E61nDgylXeF-243" value="" style="endArrow=classic;html=1;rounded=0;entryX=0.25;entryY=0;entryDx=0;entryDy=0;jumpStyle=arc;endFill=1;dashed=1;dashPattern=1 2;" parent="1" edge="1">
          <mxGeometry width="50" height="50" relative="1" as="geometry">
            <mxPoint x="881" y="336.08" as="sourcePoint" />
            <mxPoint x="881" y="396.08" as="targetPoint" />
          </mxGeometry>
        </mxCell>
        <mxCell id="rRr5-v546E61nDgylXeF-267" value="write_ctl[0]" style="text;html=1;strokeColor=none;fillColor=none;align=center;verticalAlign=middle;whiteSpace=wrap;rounded=0;fontFamily=Garamond;fontSize=18;rotation=-15;" parent="1" vertex="1">
          <mxGeometry x="306" y="186.07999999999998" width="60" height="30" as="geometry" />
        </mxCell>
        <mxCell id="rRr5-v546E61nDgylXeF-268" value="write_ctl[1]" style="text;html=1;strokeColor=none;fillColor=none;align=center;verticalAlign=middle;whiteSpace=wrap;rounded=0;fontFamily=Garamond;fontSize=18;rotation=-15;" parent="1" vertex="1">
          <mxGeometry x="376" y="186.07999999999998" width="60" height="30" as="geometry" />
        </mxCell>
        <mxCell id="rRr5-v546E61nDgylXeF-269" value="write_ctl[2]" style="text;html=1;strokeColor=none;fillColor=none;align=center;verticalAlign=middle;whiteSpace=wrap;rounded=0;fontFamily=Garamond;fontSize=18;rotation=-15;" parent="1" vertex="1">
          <mxGeometry x="446" y="186.07999999999998" width="60" height="30" as="geometry" />
        </mxCell>
        <mxCell id="rRr5-v546E61nDgylXeF-270" value="write_ctl[3]" style="text;html=1;strokeColor=none;fillColor=none;align=center;verticalAlign=middle;whiteSpace=wrap;rounded=0;fontFamily=Garamond;fontSize=18;rotation=-15;" parent="1" vertex="1">
          <mxGeometry x="516" y="186.07999999999998" width="60" height="30" as="geometry" />
        </mxCell>
        <mxCell id="rRr5-v546E61nDgylXeF-271" value="write_ctl[4]" style="text;html=1;strokeColor=none;fillColor=none;align=center;verticalAlign=middle;whiteSpace=wrap;rounded=0;fontFamily=Garamond;fontSize=18;rotation=-15;" parent="1" vertex="1">
          <mxGeometry x="586" y="186.07999999999998" width="60" height="30" as="geometry" />
        </mxCell>
        <mxCell id="rRr5-v546E61nDgylXeF-272" value="write_ctl[26]" style="text;html=1;strokeColor=none;fillColor=none;align=center;verticalAlign=middle;whiteSpace=wrap;rounded=0;fontFamily=Garamond;fontSize=18;rotation=-15;" parent="1" vertex="1">
          <mxGeometry x="706" y="186.07999999999998" width="60" height="30" as="geometry" />
        </mxCell>
        <mxCell id="rRr5-v546E61nDgylXeF-273" value="write_ctl[27]" style="text;html=1;strokeColor=none;fillColor=none;align=center;verticalAlign=middle;whiteSpace=wrap;rounded=0;fontFamily=Garamond;fontSize=18;rotation=-15;" parent="1" vertex="1">
          <mxGeometry x="776" y="186.07999999999998" width="60" height="30" as="geometry" />
        </mxCell>
        <mxCell id="rRr5-v546E61nDgylXeF-274" value="write_ctl[28]" style="text;html=1;strokeColor=none;fillColor=none;align=center;verticalAlign=middle;whiteSpace=wrap;rounded=0;fontFamily=Garamond;fontSize=18;rotation=-15;" parent="1" vertex="1">
          <mxGeometry x="846" y="186.07999999999998" width="60" height="30" as="geometry" />
        </mxCell>
        <mxCell id="rRr5-v546E61nDgylXeF-275" value="write_ctl[29]" style="text;html=1;strokeColor=none;fillColor=none;align=center;verticalAlign=middle;whiteSpace=wrap;rounded=0;fontFamily=Garamond;fontSize=18;rotation=-15;" parent="1" vertex="1">
          <mxGeometry x="916" y="186.07999999999998" width="60" height="30" as="geometry" />
        </mxCell>
        <mxCell id="rRr5-v546E61nDgylXeF-276" value="write_ctl[30]" style="text;html=1;strokeColor=none;fillColor=none;align=center;verticalAlign=middle;whiteSpace=wrap;rounded=0;fontFamily=Garamond;fontSize=18;rotation=-15;" parent="1" vertex="1">
          <mxGeometry x="986" y="186.07999999999998" width="60" height="30" as="geometry" />
        </mxCell>
        <mxCell id="rRr5-v546E61nDgylXeF-277" value="data_packet_in[15:0][1:0][1:0][2:0]" style="text;html=1;strokeColor=none;fillColor=none;align=center;verticalAlign=middle;whiteSpace=wrap;rounded=0;fontFamily=Garamond;fontSize=18;rotation=0;" parent="1" vertex="1">
          <mxGeometry x="10" y="229.07999999999998" width="240" height="30" as="geometry" />
        </mxCell>
        <mxCell id="rRr5-v546E61nDgylXeF-278" value="data_packet_out[2:0]" style="text;html=1;strokeColor=none;fillColor=none;align=center;verticalAlign=middle;whiteSpace=wrap;rounded=0;fontFamily=Garamond;fontSize=18;rotation=0;" parent="1" vertex="1">
          <mxGeometry x="1423" y="404.08" width="150" height="30" as="geometry" />
        </mxCell>
        <mxCell id="rRr5-v546E61nDgylXeF-282" value="" style="endArrow=classic;html=1;rounded=0;exitX=0.5;exitY=0;exitDx=0;exitDy=0;" parent="1" source="rRr5-v546E61nDgylXeF-192" edge="1">
          <mxGeometry width="50" height="50" relative="1" as="geometry">
            <mxPoint x="1251" y="546.08" as="sourcePoint" />
            <mxPoint x="1420" y="421" as="targetPoint" />
          </mxGeometry>
        </mxCell>
        <mxCell id="rRr5-v546E61nDgylXeF-283" value="" style="endArrow=classic;html=1;rounded=0;" parent="1" edge="1">
          <mxGeometry width="50" height="50" relative="1" as="geometry">
            <mxPoint x="321" y="737.08" as="sourcePoint" />
            <mxPoint x="321" y="697.08" as="targetPoint" />
          </mxGeometry>
        </mxCell>
        <mxCell id="rRr5-v546E61nDgylXeF-286" value="&lt;font style=&quot;font-size: 18px;&quot; face=&quot;Garamond&quot;&gt;clk&lt;/font&gt;" style="edgeLabel;html=1;align=center;verticalAlign=middle;resizable=0;points=[];labelBackgroundColor=none;" parent="rRr5-v546E61nDgylXeF-283" vertex="1" connectable="0">
          <mxGeometry x="-0.4478" relative="1" as="geometry">
            <mxPoint y="20" as="offset" />
          </mxGeometry>
        </mxCell>
        <mxCell id="rRr5-v546E61nDgylXeF-285" value="" style="endArrow=classic;html=1;rounded=0;" parent="1" edge="1">
          <mxGeometry width="50" height="50" relative="1" as="geometry">
            <mxPoint x="371" y="737.08" as="sourcePoint" />
            <mxPoint x="371" y="697.08" as="targetPoint" />
          </mxGeometry>
        </mxCell>
        <mxCell id="rRr5-v546E61nDgylXeF-287" value="resetN" style="edgeLabel;html=1;align=center;verticalAlign=middle;resizable=0;points=[];labelBackgroundColor=none;fontFamily=Garamond;fontSize=18;" parent="rRr5-v546E61nDgylXeF-285" vertex="1" connectable="0">
          <mxGeometry x="-0.4348" y="2" relative="1" as="geometry">
            <mxPoint y="20" as="offset" />
          </mxGeometry>
        </mxCell>
        <mxCell id="rRr5-v546E61nDgylXeF-288" value="" style="endArrow=classic;html=1;rounded=0;" parent="1" edge="1">
          <mxGeometry width="50" height="50" relative="1" as="geometry">
            <mxPoint x="1291" y="44.08" as="sourcePoint" />
            <mxPoint x="1291" y="115.08" as="targetPoint" />
          </mxGeometry>
        </mxCell>
        <mxCell id="rRr5-v546E61nDgylXeF-289" value="&lt;font style=&quot;font-size: 18px;&quot; face=&quot;Garamond&quot;&gt;write_ctl[30:0]&lt;/font&gt;" style="edgeLabel;html=1;align=center;verticalAlign=middle;resizable=0;points=[];labelBackgroundColor=none;" parent="rRr5-v546E61nDgylXeF-288" vertex="1" connectable="0">
          <mxGeometry x="-0.5326" relative="1" as="geometry">
            <mxPoint y="-31" as="offset" />
          </mxGeometry>
        </mxCell>
        <mxCell id="rRr5-v546E61nDgylXeF-290" value="" style="endArrow=classic;html=1;rounded=0;" parent="1" edge="1">
          <mxGeometry width="50" height="50" relative="1" as="geometry">
            <mxPoint x="1160" y="45.08" as="sourcePoint" />
            <mxPoint x="1160" y="116.08" as="targetPoint" />
          </mxGeometry>
        </mxCell>
        <mxCell id="rRr5-v546E61nDgylXeF-291" value="&lt;font style=&quot;font-size: 18px;&quot; face=&quot;Garamond&quot;&gt;choose_pe[1:0]&lt;/font&gt;" style="edgeLabel;html=1;align=center;verticalAlign=middle;resizable=0;points=[];labelBackgroundColor=none;" parent="rRr5-v546E61nDgylXeF-290" vertex="1" connectable="0">
          <mxGeometry x="-0.5326" relative="1" as="geometry">
            <mxPoint y="-31" as="offset" />
          </mxGeometry>
        </mxCell>
        <mxCell id="rRr5-v546E61nDgylXeF-292" value="" style="endArrow=classic;html=1;rounded=0;" parent="1" edge="1">
          <mxGeometry width="50" height="50" relative="1" as="geometry">
            <mxPoint x="1030.7" y="45.08" as="sourcePoint" />
            <mxPoint x="1030.7" y="116.08" as="targetPoint" />
          </mxGeometry>
        </mxCell>
        <mxCell id="rRr5-v546E61nDgylXeF-293" value="&lt;font style=&quot;font-size: 18px;&quot; face=&quot;Garamond&quot;&gt;choose_pu[3:0]&lt;/font&gt;" style="edgeLabel;html=1;align=center;verticalAlign=middle;resizable=0;points=[];labelBackgroundColor=none;" parent="rRr5-v546E61nDgylXeF-292" vertex="1" connectable="0">
          <mxGeometry x="-0.5326" relative="1" as="geometry">
            <mxPoint y="-31" as="offset" />
          </mxGeometry>
        </mxCell>
        <mxCell id="rRr5-v546E61nDgylXeF-294" value="" style="endArrow=classic;html=1;rounded=0;" parent="1" edge="1">
          <mxGeometry width="50" height="50" relative="1" as="geometry">
            <mxPoint x="900" y="45.08" as="sourcePoint" />
            <mxPoint x="900" y="116.08" as="targetPoint" />
          </mxGeometry>
        </mxCell>
        <mxCell id="rRr5-v546E61nDgylXeF-295" value="&lt;font style=&quot;font-size: 18px;&quot; face=&quot;Garamond&quot;&gt;choose_diagonal[4:0]&lt;/font&gt;" style="edgeLabel;html=1;align=center;verticalAlign=middle;resizable=0;points=[];labelBackgroundColor=none;" parent="rRr5-v546E61nDgylXeF-294" vertex="1" connectable="0">
          <mxGeometry x="-0.5326" relative="1" as="geometry">
            <mxPoint y="-31" as="offset" />
          </mxGeometry>
        </mxCell>
        <mxCell id="rRr5-v546E61nDgylXeF-296" value="" style="endArrow=classic;html=1;rounded=0;entryX=0;entryY=0.5;entryDx=0;entryDy=0;" parent="1" target="rRr5-v546E61nDgylXeF-140" edge="1">
          <mxGeometry width="50" height="50" relative="1" as="geometry">
            <mxPoint x="1111" y="230" as="sourcePoint" />
            <mxPoint x="1130" y="280" as="targetPoint" />
          </mxGeometry>
        </mxCell>
        <mxCell id="rRr5-v546E61nDgylXeF-302" value="&lt;font style=&quot;font-size: 18px;&quot; face=&quot;Garamond&quot;&gt;choose_diagonal[4:0]&lt;/font&gt;" style="edgeLabel;html=1;align=center;verticalAlign=middle;resizable=0;points=[];labelBackgroundColor=none;" parent="rRr5-v546E61nDgylXeF-296" vertex="1" connectable="0">
          <mxGeometry x="-0.6205" y="1" relative="1" as="geometry">
            <mxPoint y="-18" as="offset" />
          </mxGeometry>
        </mxCell>
        <mxCell id="rRr5-v546E61nDgylXeF-297" value="" style="endArrow=classic;html=1;rounded=0;entryX=0;entryY=0.5;entryDx=0;entryDy=0;" parent="1" edge="1">
          <mxGeometry width="50" height="50" relative="1" as="geometry">
            <mxPoint x="1221" y="280" as="sourcePoint" />
            <mxPoint x="1220.74" y="321" as="targetPoint" />
          </mxGeometry>
        </mxCell>
        <mxCell id="rRr5-v546E61nDgylXeF-301" value="&lt;font style=&quot;font-size: 18px;&quot; face=&quot;Garamond&quot;&gt;choose_pu[3:0]&lt;/font&gt;" style="edgeLabel;html=1;align=center;verticalAlign=middle;resizable=0;points=[];labelBackgroundColor=none;" parent="rRr5-v546E61nDgylXeF-297" vertex="1" connectable="0">
          <mxGeometry x="-0.268" y="1" relative="1" as="geometry">
            <mxPoint y="-27" as="offset" />
          </mxGeometry>
        </mxCell>
        <mxCell id="rRr5-v546E61nDgylXeF-298" value="" style="endArrow=classic;html=1;rounded=0;entryX=0;entryY=0.5;entryDx=0;entryDy=0;" parent="1" edge="1">
          <mxGeometry width="50" height="50" relative="1" as="geometry">
            <mxPoint x="1331" y="320" as="sourcePoint" />
            <mxPoint x="1331" y="361.08" as="targetPoint" />
          </mxGeometry>
        </mxCell>
        <mxCell id="rRr5-v546E61nDgylXeF-300" value="&lt;font face=&quot;Garamond&quot; style=&quot;font-size: 18px;&quot;&gt;choose_pe[1:0]&lt;/font&gt;" style="edgeLabel;html=1;align=center;verticalAlign=middle;resizable=0;points=[];labelBackgroundColor=none;" parent="rRr5-v546E61nDgylXeF-298" vertex="1" connectable="0">
          <mxGeometry x="0.0909" relative="1" as="geometry">
            <mxPoint y="-35" as="offset" />
          </mxGeometry>
        </mxCell>
      </root>
    </mxGraphModel>
  </diagram>
</mxfile>
